<?xml version="1.0" standalone="no"?>
<!DOCTYPE svg PUBLIC "-//W3C//DTD SVG 20010904//EN"
 "http://www.w3.org/TR/2001/REC-SVG-20010904/DTD/svg10.dtd">
<svg version="1.0" xmlns="http://www.w3.org/2000/svg"
 width="5472.000000pt" height="3648.000000pt" viewBox="0 0 5472.000000 3648.000000"
 preserveAspectRatio="xMidYMid meet">

<g transform="translate(0.000000,3648.000000) scale(0.100000,-0.100000)"
fill="#000000" stroke="none">
<path d="M26044 32830 c-13 -5 -6 -9 26 -12 25 -3 51 0 58 5 9 7 11 6 7 -5 -9
-22 24 -31 50 -14 16 10 25 12 33 4 6 -6 22 -7 39 -3 15 4 44 7 64 6 25 -2 36
2 36 12 0 7 -6 14 -13 14 -7 0 -11 -4 -8 -9 6 -10 -10 -11 -20 0 -10 9 -246
11 -272 2z"/>
<path d="M26387 32822 c10 -7 28 -11 41 -9 12 2 22 0 22 -4 0 -5 3 -8 8 -8 4
1 9 0 12 -1 3 -1 16 -3 30 -4 14 -1 31 -5 38 -10 7 -4 19 -3 27 4 8 6 19 9 25
5 5 -3 16 -3 22 2 14 8 67 5 83 -5 18 -11 150 -10 164 2 11 8 15 8 18 -1 5
-15 53 -18 53 -3 0 10 -6 12 -90 29 -55 12 -292 17 -308 7 -7 -4 -12 -2 -12 4
0 7 -27 9 -75 8 -65 -3 -73 -5 -58 -16z"/>
<path d="M25607 32823 c-3 -2 -81 -5 -173 -7 -93 -2 -257 -8 -364 -15 -107 -6
-253 -13 -325 -16 -126 -5 -215 -21 -215 -38 0 -4 -8 -4 -17 2 -28 14 -210 4
-348 -21 -33 -5 -82 -11 -110 -13 -27 -2 -97 -10 -155 -19 -58 -9 -115 -17
-127 -18 -13 -1 -23 -6 -23 -11 0 -4 -4 -6 -9 -3 -12 8 -151 -20 -164 -33 -6
-6 -9 -11 -6 -12 45 -6 108 -3 124 7 11 7 37 16 58 19 20 4 37 10 37 14 0 3
10 6 23 7 12 1 43 4 68 7 31 4 53 1 66 -8 21 -14 93 -16 93 -2 0 4 18 6 39 3
34 -3 39 -2 36 14 -3 16 6 18 94 19 54 1 109 4 122 7 13 2 50 7 81 9 32 2 65
8 75 13 23 12 51 9 82 -7 19 -11 25 -11 32 0 6 10 9 11 9 2 0 -20 17 -15 22 5
5 16 14 18 68 16 36 -1 72 4 88 11 21 12 30 12 54 -1 15 -8 28 -10 28 -5 0 10
38 7 48 -3 2 -3 13 -1 22 4 10 5 58 10 106 11 49 1 94 6 101 11 7 6 18 6 24 2
8 -5 9 -3 4 6 -6 10 -4 11 11 5 18 -7 93 -7 239 -1 33 2 62 4 65 5 15 7 80 5
83 -3 5 -15 47 4 48 22 0 11 3 12 6 5 2 -7 18 -13 33 -13 16 0 31 -3 33 -7 3
-5 25 -7 49 -6 269 15 268 14 268 31 0 9 -395 14 -403 5z"/>
<path d="M26981 32791 c-10 -7 -8 -10 8 -16 27 -8 36 -2 18 13 -7 6 -18 7 -26
3z"/>
<path d="M27096 32791 c-19 -7 -18 -8 5 -15 46 -14 87 -17 93 -8 5 8 -1 10
-44 14 -11 1 -20 6 -20 10 0 10 -8 9 -34 -1z"/>
<path d="M27440 32744 c0 -8 5 -12 10 -9 6 4 8 11 5 16 -9 14 -15 11 -15 -7z"/>
<path d="M27463 32745 c0 -18 17 -19 41 -2 16 11 14 13 -12 15 -20 1 -29 -3
-29 -13z"/>
<path d="M27720 32709 c0 -5 11 -9 25 -9 14 0 25 4 25 9 0 5 -11 9 -25 9 -14
0 -25 -4 -25 -9z"/>
<path d="M27840 32704 c0 -12 3 -14 13 -6 6 5 21 12 32 15 13 3 9 5 -12 6 -24
1 -33 -3 -33 -15z"/>
<path d="M27316 32665 c-3 -8 -1 -15 4 -15 6 0 10 7 10 15 0 8 -2 15 -4 15 -2
0 -6 -7 -10 -15z"/>
<path d="M28277 32644 c4 -10 9 -12 16 -5 7 7 18 6 36 -3 75 -39 80 -40 98
-24 16 14 20 14 32 1 7 -8 22 -13 32 -10 16 4 18 1 13 -19 -5 -19 -3 -23 9
-18 32 12 13 -32 -21 -49 -18 -9 -31 -13 -27 -7 11 18 -11 11 -29 -9 -10 -11
-15 -24 -12 -30 11 -17 16 -72 6 -66 -4 3 -10 -2 -14 -10 -3 -8 -12 -12 -21
-9 -9 4 -15 1 -15 -7 0 -11 -2 -12 -9 -1 -4 7 -18 14 -31 15 -12 1 -27 11 -33
24 -5 12 -13 20 -18 18 -4 -3 -5 4 -2 15 3 11 10 17 15 14 6 -4 30 -7 54 -8
l43 -1 16 48 c9 27 14 51 12 53 -8 8 -38 -66 -32 -79 4 -6 0 -4 -8 6 -17 21
-27 22 -27 2 0 -8 -5 -15 -11 -15 -6 0 -8 7 -5 16 5 14 4 15 -9 4 -13 -11 -13
-8 1 25 8 20 11 34 6 31 -14 -8 -54 25 -48 40 3 7 1 16 -4 19 -6 4 -10 -3 -10
-14 0 -25 -15 -27 -29 -4 -15 28 -38 0 -35 -42 4 -47 12 -59 30 -44 11 9 15 7
20 -7 4 -11 9 -23 12 -27 2 -5 -6 -4 -18 3 -12 7 -20 8 -16 2 9 -14 -30 -22
-45 -8 -7 7 -10 7 -6 0 3 -6 -1 -11 -9 -11 -8 0 -13 6 -10 13 2 6 -4 14 -14
17 -16 4 -18 0 -13 -27 6 -37 -12 -90 -27 -81 -8 5 -7 11 1 21 10 13 6 18 -13
15 -5 0 -8 5 -8 13 0 7 -9 16 -20 19 -14 4 -20 0 -20 -12 0 -10 -3 -21 -6 -24
-8 -7 -44 31 -44 46 0 11 -30 36 -43 37 -5 0 -5 -5 -2 -11 4 -6 -2 -5 -14 3
-12 7 -21 16 -21 20 0 3 -8 5 -17 3 -10 -2 -26 -4 -36 -4 -15 -1 -18 -7 -13
-33 5 -28 4 -29 -4 -10 -13 30 -15 28 -18 -14 -2 -28 1 -35 12 -31 8 3 18 -2
22 -11 10 -22 12 -62 3 -57 -3 3 -15 -5 -25 -17 -11 -12 -13 -18 -5 -13 10 5
12 4 7 -3 -4 -7 -13 -12 -21 -12 -7 0 -15 -6 -18 -12 -2 -7 -7 -10 -11 -7 -4
3 -2 18 3 32 8 20 7 27 -5 31 -21 8 -26 8 -21 -1 3 -5 -6 -16 -19 -26 -22 -16
-23 -16 -17 -1 4 11 2 15 -4 11 -6 -4 -14 0 -17 9 -4 12 -2 15 9 10 17 -6 21
20 6 43 -7 11 -10 11 -16 0 -7 -10 -10 -9 -14 4 -6 15 -9 15 -41 -1 -19 -9
-37 -20 -38 -25 -2 -4 -10 -3 -18 3 -10 9 -15 6 -20 -15 -5 -20 -9 -23 -15
-13 -6 9 -9 6 -9 -11 0 -19 -4 -22 -22 -17 -13 3 -27 6 -31 6 -4 0 4 11 19 25
l27 25 -25 0 c-18 0 -25 5 -24 18 0 9 -6 17 -14 17 -9 0 -14 -8 -13 -20 1 -18
0 -19 -11 -3 -11 15 -16 15 -39 3 -29 -15 -37 -12 -30 15 3 12 11 16 21 13 12
-5 14 -2 9 11 -4 10 -7 27 -7 38 0 23 -10 19 -14 -5 -2 -16 -36 -53 -36 -40 0
4 -5 1 -10 -7 -6 -10 -10 -11 -10 -2 0 6 -7 12 -15 12 -8 0 -15 5 -15 10 0 6
-8 10 -18 10 -10 0 -24 6 -31 13 -11 10 -14 9 -18 -1 -3 -6 -9 -10 -14 -6 -9
5 -13 -16 -10 -43 1 -7 -3 -13 -9 -13 -7 0 -9 -9 -5 -22 5 -21 3 -20 -18 6
-14 16 -27 24 -31 18 -3 -6 0 -12 6 -15 8 -3 3 -9 -12 -15 -24 -10 -23 -11 13
-11 22 -1 37 -6 37 -13 1 -7 11 -1 23 14 23 28 64 42 60 21 -2 -7 0 -12 5 -11
4 0 15 -2 25 -6 23 -11 22 -36 -3 -36 -13 0 -18 -5 -14 -15 4 -8 1 -15 -5 -15
-6 0 -11 -12 -11 -27 0 -16 -4 -23 -8 -18 -12 17 -28 14 -28 -6 0 -10 5 -19
11 -19 5 0 4 -4 -4 -9 -19 -12 -67 6 -89 33 -9 12 -25 25 -35 29 -10 4 -15 11
-12 17 3 6 -2 13 -11 17 -10 4 -19 2 -22 -5 -3 -11 -20 -8 -59 10 -16 8 -26 8
-37 -1 -16 -13 -20 -9 -30 33 -4 17 -10 25 -14 19 -13 -21 -46 -19 -57 4 -7
13 -15 20 -19 16 -4 -4 -4 0 0 10 3 10 1 17 -5 17 -6 0 -11 -6 -11 -13 0 -9
-15 -12 -52 -11 -29 2 -58 -2 -65 -8 -9 -7 -13 -7 -13 1 0 6 1 12 2 14 1 1 -5
13 -12 27 -8 14 -14 31 -15 37 0 7 -4 12 -10 12 -5 -1 -9 -5 -7 -10 3 -12 -45
-11 -53 1 -9 14 -57 4 -68 -15 -7 -13 -12 -14 -23 -4 -17 14 -19 33 -1 23 9
-6 9 -4 -1 8 -7 8 -24 16 -38 16 -14 0 -34 9 -45 21 -11 11 -32 21 -47 21 -21
0 -24 2 -12 10 10 7 11 10 3 11 -13 2 -27 5 -40 9 -5 1 -11 2 -15 1 -5 0 -8 4
-8 9 0 6 -20 8 -55 4 -45 -6 -59 -4 -75 11 -16 15 -26 16 -59 8 -21 -6 -45 -7
-52 -2 -7 4 -18 4 -24 -1 -6 -5 -23 -7 -38 -6 -15 2 -30 -1 -33 -5 -6 -11 -84
0 -101 13 -6 5 -26 7 -44 4 -19 -3 -40 0 -48 7 -10 8 -13 8 -8 1 4 -7 -2 -14
-13 -17 -12 -3 -17 -1 -14 5 4 5 -11 8 -38 6 -32 -2 -42 -7 -40 -18 2 -13 0
-13 -10 1 -7 9 -22 21 -34 27 -25 13 -322 14 -330 0 -3 -5 -11 -5 -19 2 -19
16 -177 5 -224 -16 -22 -9 -42 -25 -44 -36 -6 -23 -28 -23 -53 1 -19 18 -20
18 -58 -1 -21 -11 -66 -22 -99 -25 -33 -3 -71 -12 -84 -20 -13 -9 -34 -17 -46
-19 -50 -8 -60 -11 -73 -28 -12 -17 -12 -17 -16 0 -3 16 -4 17 -20 1 -9 -9
-23 -17 -30 -17 -8 0 -23 -8 -34 -18 -27 -25 -49 -32 -131 -42 -42 -4 -79 -14
-87 -23 -9 -8 -29 -18 -46 -22 -16 -4 -30 -12 -30 -19 0 -7 -12 -11 -30 -10
-17 1 -40 -6 -54 -17 -13 -10 -28 -19 -33 -19 -4 0 -19 -9 -33 -20 -14 -11
-32 -20 -41 -20 -9 0 -22 -7 -29 -15 -7 -9 -22 -12 -40 -9 -32 7 -48 -10 -30
-31 10 -13 8 -15 -14 -15 -16 0 -25 -4 -21 -10 5 -9 -1 -12 -21 -9 -3 0 -11
-7 -17 -15 -7 -8 -25 -17 -42 -20 -16 -3 -31 -10 -33 -15 -2 -6 -10 -7 -18 -4
-8 3 -22 2 -31 -3 -10 -4 -22 -8 -28 -8 -5 -1 -10 -7 -10 -15 0 -8 -9 -19 -20
-25 -10 -6 -32 -23 -48 -38 -16 -16 -35 -28 -43 -28 -9 0 -12 -4 -9 -10 3 -5
1 -10 -5 -10 -6 0 -8 -4 -5 -10 3 -5 -2 -10 -12 -10 -15 0 -16 -2 -3 -10 12
-8 11 -10 -6 -10 -13 0 -32 -14 -47 -34 -15 -18 -38 -37 -52 -40 -14 -4 -23
-10 -21 -15 10 -15 -26 -36 -58 -33 -28 2 -29 1 -8 -8 22 -9 22 -11 6 -35 -24
-36 -50 -49 -58 -28 -4 9 -4 18 -1 21 3 3 5 -1 5 -9 0 -8 6 -4 16 9 8 12 20
20 25 17 5 -4 9 -1 9 5 0 6 -6 10 -12 9 -7 -1 -21 1 -32 6 -11 5 -21 3 -25 -4
-4 -7 -8 9 -9 34 0 34 4 48 18 55 13 7 21 7 25 -1 5 -7 15 -4 32 6 14 10 22
12 19 6 -4 -6 -1 -9 7 -5 12 4 13 11 4 35 -6 16 -15 29 -19 29 -11 0 -30 -39
-23 -50 3 -5 1 -11 -4 -14 -14 -9 -22 52 -9 79 6 14 15 25 19 25 4 0 14 3 22
6 10 3 19 -6 27 -28 10 -24 14 -28 17 -15 3 9 9 15 14 12 5 -4 9 3 9 13 0 20
25 32 67 32 12 0 23 3 26 8 2 4 3 2 1 -4 -1 -7 5 -10 17 -7 12 3 22 17 26 33
4 20 10 26 23 23 19 -5 34 12 35 37 0 8 10 19 23 25 12 5 22 13 22 17 0 5 5 8
11 8 5 0 8 -4 4 -9 -3 -5 14 0 37 12 24 12 44 23 46 23 1 1 -2 13 -8 28 l-10
26 -21 -21 c-12 -12 -18 -27 -14 -37 5 -13 2 -13 -15 3 -18 17 -25 14 -21 -9
1 -5 -5 -6 -14 -2 -8 3 -24 -2 -35 -12 -43 -39 -48 -42 -53 -29 -2 7 -10 -5
-17 -26 -9 -23 -19 -36 -27 -33 -8 3 -13 -2 -13 -12 0 -13 -2 -14 -9 -4 -6 9
-19 11 -44 7 -20 -4 -35 -11 -32 -15 3 -4 -3 -14 -12 -21 -12 -10 -14 -10 -9
-1 4 6 4 18 -1 25 -10 16 -13 37 -5 36 21 -3 31 3 26 16 -8 20 -26 19 -51 -4
-20 -19 -21 -19 -26 -1 -3 13 2 20 19 24 13 4 24 13 24 21 0 16 -30 9 -42 -9
-5 -7 -8 -5 -8 6 0 9 6 19 13 22 6 3 -2 5 -20 3 -18 -2 -30 1 -27 5 3 5 -3 17
-15 27 -11 10 -17 22 -13 26 6 7 -20 1 -55 -12 -9 -4 -13 5 -13 23 0 42 13 56
56 61 64 7 61 23 -5 26 -25 2 -42 -2 -45 -10 -3 -7 -12 -10 -22 -6 -12 4 -15
3 -10 -5 4 -7 2 -12 -5 -12 -8 0 -8 -4 1 -15 16 -19 8 -27 -27 -31 -25 -3 -26
-2 -10 10 16 13 16 14 -1 37 -10 13 -21 32 -25 42 -6 17 -36 24 -38 10 -4 -44
-19 -82 -19 -50 0 15 -16 22 -41 19 -4 -1 -3 14 1 32 4 19 3 40 -2 47 -8 11
-9 10 -5 -2 8 -26 -14 -42 -29 -21 -13 16 -13 16 -14 -1 0 -10 6 -20 13 -22
19 -8 20 -75 0 -75 -10 0 -13 6 -9 16 5 12 2 15 -10 10 -8 -3 -20 -6 -25 -6
-5 0 -9 -6 -9 -14 0 -10 -11 -14 -35 -13 -19 1 -35 5 -35 10 0 15 -45 3 -45
-13 -1 -26 -21 -54 -29 -41 -4 7 -3 18 4 26 8 10 8 15 -1 21 -7 4 -9 3 -6 -3
9 -15 -27 -42 -39 -29 -14 16 -11 40 9 60 20 21 13 43 -9 25 -12 -10 -17 -7
-16 11 0 3 -13 6 -29 7 -20 2 -29 -2 -29 -13 0 -9 -5 -12 -12 -8 -7 3 0 -5 17
-19 16 -14 34 -23 39 -20 5 4 6 1 2 -6 -4 -6 -3 -18 4 -26 9 -10 8 -19 -1 -37
-8 -14 -14 -18 -17 -10 -2 6 -10 12 -18 12 -7 0 -11 6 -8 14 3 8 -4 23 -15 32
-15 13 -17 20 -8 26 7 4 4 7 -8 6 -16 -2 -20 -10 -22 -42 -4 -52 -18 -59 -61
-30 -19 13 -39 24 -45 24 -5 0 -5 6 2 14 6 7 22 11 36 9 24 -5 64 21 52 34 -3
3 -14 -2 -23 -11 -22 -22 -29 -14 -13 16 10 19 10 21 -2 12 -27 -21 -48 -24
-43 -6 2 9 -2 4 -10 -13 -11 -21 -15 -24 -16 -12 0 10 -7 26 -16 35 -15 14
-18 14 -28 1 -6 -8 -19 -18 -28 -22 -10 -3 -18 -11 -18 -16 0 -5 -8 -9 -17 -8
-14 1 -18 10 -18 36 0 29 -4 36 -20 36 -11 0 -19 -5 -18 -12 2 -7 -6 -17 -17
-23 -11 -6 -20 -8 -20 -4 0 4 -9 -3 -19 -15 -10 -12 -21 -17 -23 -12 -2 7 -8
7 -18 1 -11 -7 -12 -12 -3 -21 10 -10 27 -14 90 -21 7 -1 11 -4 10 -7 -2 -6 7
-11 22 -11 5 0 11 9 14 21 4 15 12 20 29 18 27 -4 51 8 43 22 -4 5 4 9 15 9
16 0 20 -4 16 -16 -3 -8 -2 -23 3 -32 11 -20 -5 -37 -34 -37 -11 1 -23 -3 -26
-8 -9 -13 -59 -16 -59 -3 0 6 -5 4 -10 -4 -7 -11 -10 -11 -10 -2 0 7 -5 10
-11 6 -6 -3 -15 -1 -19 6 -6 9 -11 7 -19 -9 -7 -11 -16 -21 -21 -21 -5 0 -21
-5 -37 -11 -22 -8 -24 -12 -13 -19 11 -7 10 -9 -7 -7 -12 0 -21 4 -21 7 1 3
-2 13 -6 23 -12 26 -29 20 -24 -8 3 -14 1 -25 -3 -25 -5 0 -6 -6 -3 -14 3 -8
1 -17 -5 -21 -6 -3 -9 0 -5 8 5 15 -6 15 -64 2 -18 -4 -35 -11 -37 -15 -11
-17 -45 3 -45 26 0 19 5 24 25 24 16 0 25 -6 25 -16 0 -11 5 -14 16 -10 9 3
17 6 20 6 2 0 1 7 -2 15 -4 8 -1 15 6 15 6 0 8 5 5 10 -3 6 -1 10 4 10 6 0 11
6 11 13 0 7 14 18 30 24 17 6 30 7 30 2 0 -13 27 -11 35 2 10 15 0 22 -30 22
-14 0 -25 5 -25 11 0 6 -4 6 -9 -2 -7 -11 -9 -11 -14 1 -4 10 -13 13 -28 10
-22 -6 -22 -6 -2 -22 16 -14 17 -19 7 -29 -7 -7 -23 -12 -35 -12 -13 0 -23 -8
-26 -20 -5 -19 -6 -20 -19 -3 -7 10 -14 15 -14 11 0 -5 -12 2 -26 15 -14 12
-29 22 -32 22 -27 1 -37 45 -11 45 5 0 17 8 28 19 10 10 25 21 32 23 8 3 11 9
7 13 -8 8 -98 -15 -98 -26 0 -3 -7 -6 -15 -6 -15 0 -84 -19 -123 -34 -13 -5
-31 -9 -41 -9 -10 0 -31 -6 -46 -14 l-27 -14 37 -12 c33 -11 35 -13 18 -26
-20 -15 -34 -18 -32 -6 4 26 -4 32 -48 32 -31 0 -43 -3 -35 -9 14 -9 -28 -20
-93 -26 -16 -2 -31 -8 -33 -14 -2 -6 -14 -11 -27 -11 -13 0 -27 -5 -31 -12 -5
-8 0 -9 15 -5 31 8 51 -1 45 -21 -3 -9 2 -4 11 11 13 22 19 26 30 17 8 -7 15
-7 19 -1 3 5 1 11 -6 13 -7 3 -2 7 10 10 12 4 25 1 29 -4 4 -7 1 -8 -6 -3 -10
6 -11 3 -2 -14 7 -11 14 -21 17 -21 3 0 2 5 -1 10 -3 6 1 13 9 16 9 3 14 10
11 14 -6 10 24 22 35 15 5 -3 11 -1 15 5 3 5 13 10 21 10 8 0 13 -4 9 -9 -3
-6 2 -14 12 -20 14 -7 23 -3 43 17 14 15 37 32 50 38 14 6 47 21 73 34 57 26
62 23 66 -29 1 -13 8 -18 26 -16 23 3 54 -20 42 -31 -11 -11 -98 -11 -93 1 2
6 -5 12 -15 12 -10 1 -19 -2 -19 -7 0 -5 -13 -7 -30 -3 -29 5 -30 4 -30 -28 0
-31 -1 -32 -15 -13 -8 10 -15 14 -15 7 0 -6 -13 -14 -30 -18 -24 -5 -30 -12
-30 -33 l0 -26 -16 22 c-12 18 -19 20 -35 12 -23 -13 -27 -55 -4 -46 8 3 15 1
15 -5 0 -5 -8 -12 -17 -16 -60 -21 -87 -67 -45 -75 8 -2 16 -12 17 -24 2 -35
-33 -17 -56 27 -20 40 -34 49 -42 27 -2 -7 -11 3 -21 24 -10 20 -25 39 -34 42
-9 3 -23 9 -30 12 -8 4 -10 0 -6 -10 3 -9 2 -16 -4 -16 -5 0 -12 -9 -15 -21
-3 -12 -10 -18 -15 -15 -6 3 -13 0 -15 -6 -4 -10 -6 -9 -6 1 -1 11 -4 11 -18
0 -9 -8 -14 -9 -11 -4 4 6 -7 17 -23 24 -20 9 -29 20 -29 37 0 13 5 24 10 24
6 0 10 7 10 15 0 8 -7 15 -15 15 -21 0 -65 -22 -65 -32 0 -5 4 -7 9 -4 11 7
22 -20 15 -38 -8 -21 -31 -27 -60 -16 -32 12 -34 12 -34 -1 0 -5 6 -7 13 -4 6
4 5 1 -4 -7 -9 -7 -21 -23 -28 -35 -10 -19 -8 -26 9 -43 22 -22 35 -27 24 -8
-4 7 -3 8 4 4 18 -11 15 -16 -18 -27 -19 -7 -30 -18 -30 -29 0 -11 -4 -22 -10
-25 -10 -6 -39 6 -38 15 3 16 -15 49 -23 44 -5 -3 -7 -9 -4 -13 2 -5 -6 -6
-20 -4 -17 4 -22 10 -20 24 2 10 -1 19 -6 19 -6 0 -7 6 -3 13 5 8 2 8 -9 -2
-12 -9 -17 -10 -17 -2 0 7 -4 10 -9 7 -5 -3 -7 -14 -4 -25 3 -10 -2 -32 -11
-49 -18 -36 -20 -46 -6 -37 6 3 10 1 10 -4 0 -14 -27 -14 -35 -1 -13 21 -32
10 -27 -15 2 -14 0 -25 -6 -25 -6 0 -8 -10 -4 -22 5 -20 3 -21 -10 -10 -25 21
-30 52 -7 52 10 0 19 5 19 11 0 5 -4 7 -10 4 -7 -4 -7 2 0 19 5 14 6 25 2 25
-18 -3 -32 2 -32 12 0 5 4 8 9 4 5 -3 12 -1 16 5 3 5 1 10 -4 10 -6 0 -11 5
-11 11 0 5 4 8 9 4 5 -3 11 5 13 17 2 14 9 22 18 20 11 -3 12 0 4 8 -8 8 -20
6 -45 -9 -19 -12 -44 -25 -56 -31 -13 -5 -23 -15 -23 -23 0 -9 -12 -11 -41 -9
-37 4 -56 -1 -111 -29 -10 -5 -25 -9 -33 -9 -8 0 -15 -4 -15 -10 0 -5 -9 -10
-20 -10 -11 0 -20 -5 -20 -10 0 -6 -3 -9 -7 -9 -23 4 -33 -3 -33 -21 0 -11 -7
-20 -15 -20 -13 0 -14 -4 -4 -22 9 -16 9 -23 0 -26 -6 -2 -11 -10 -11 -18 0
-17 -10 -17 -32 0 -10 7 -14 16 -10 20 3 4 7 15 7 24 0 9 5 16 12 15 6 -1 14
4 17 12 10 27 -28 16 -54 -15 -14 -16 -32 -30 -40 -29 -9 0 -11 2 -3 5 13 6 6
34 -9 34 -5 0 -7 -4 -4 -9 3 -5 -6 -12 -21 -16 -15 -3 -33 -14 -41 -23 -7 -9
-10 -11 -7 -4 6 11 3 11 -14 0 -21 -13 -21 -13 6 -19 23 -5 25 -7 11 -12 -39
-15 -49 -16 -43 -7 3 6 1 10 -5 10 -6 0 -8 4 -5 10 4 7 -3 7 -20 0 -43 -16
-66 -31 -61 -38 2 -4 -13 -7 -34 -7 -20 -1 -45 -8 -53 -17 -15 -15 -14 -16 6
-23 19 -6 20 -8 4 -12 -10 -3 -23 0 -30 5 -7 6 -24 8 -39 5 -28 -5 -32 -15
-28 -60 1 -17 -3 -21 -14 -17 -9 3 -16 2 -17 -2 0 -5 -2 -19 -5 -32 -2 -14 0
-21 6 -17 5 3 10 1 10 -4 0 -19 -18 -12 -38 14 -12 16 -18 33 -14 47 3 14 1
19 -6 14 -7 -4 -12 -13 -12 -20 0 -13 -41 -16 -51 -3 -3 4 -16 -2 -29 -13 -12
-11 -27 -17 -31 -14 -5 3 -16 -2 -25 -10 -18 -18 0 -23 26 -6 9 6 20 5 29 -3
10 -8 13 -8 8 -1 -4 7 0 15 9 18 22 9 24 8 18 -9 -4 -8 -1 -22 6 -30 7 -9 8
-15 2 -15 -5 0 -12 -6 -15 -13 -4 -10 3 -12 24 -9 22 3 29 0 29 -13 0 -14 -6
-16 -36 -11 -34 7 -35 6 -24 -14 11 -20 10 -21 -9 -11 -17 10 -20 9 -15 -4 5
-13 1 -15 -22 -9 -16 4 -33 11 -38 15 -6 5 -21 9 -34 9 -21 0 -23 -3 -17 -29
7 -34 -5 -46 -39 -37 -19 5 -22 11 -18 32 3 18 1 25 -6 20 -6 -3 -14 -1 -18 6
-4 7 -4 10 1 6 4 -4 15 -2 23 5 13 10 14 9 7 -3 -8 -13 -7 -13 8 -1 9 7 17 20
17 27 0 9 12 14 36 14 28 0 35 3 32 18 -3 13 -13 17 -48 15 -27 -2 -49 -9 -56
-18 -6 -8 -21 -15 -33 -15 -11 0 -42 -11 -69 -24 -26 -14 -61 -30 -79 -37 -17
-7 -29 -17 -26 -23 3 -5 1 -6 -5 -2 -6 3 -26 -2 -44 -12 -18 -10 -73 -33 -123
-51 -49 -19 -97 -40 -106 -47 -8 -8 -22 -14 -30 -14 -8 0 -25 -7 -38 -16 -25
-18 -102 -57 -187 -95 -33 -14 -50 -28 -47 -36 3 -8 -3 -13 -18 -13 -13 -1
-40 -10 -59 -20 -19 -11 -43 -22 -52 -26 -10 -3 -18 -10 -18 -14 0 -9 -51 -32
-58 -26 -7 8 -102 -43 -102 -54 0 -6 -5 -10 -11 -10 -14 0 -39 -26 -39 -40 0
-6 -4 -9 -9 -6 -17 11 -195 -90 -185 -105 3 -5 -1 -6 -9 -3 -18 6 -81 -52 -67
-61 6 -3 10 -1 10 4 0 6 7 11 15 11 8 0 15 5 15 11 0 6 6 9 14 6 8 -3 17 -1
20 6 3 9 6 9 13 0 9 -12 53 -7 53 6 0 3 14 12 31 20 19 8 28 18 25 27 -4 12
-2 12 15 3 11 -6 27 -8 34 -5 19 7 27 -5 14 -21 -9 -10 -8 -13 6 -13 9 0 15
-6 12 -12 -2 -7 -10 -12 -16 -10 -15 3 -42 -23 -33 -33 4 -4 2 -6 -3 -5 -25 5
-53 -12 -48 -30 5 -17 -10 -33 -33 -36 -6 -1 -10 7 -10 19 1 31 -16 30 -52 -3
-18 -16 -39 -27 -47 -24 -8 4 -13 9 -10 13 10 16 -79 -5 -112 -27 -20 -13 -23
-12 -29 2 -3 9 -1 23 6 31 10 12 9 15 -4 15 -9 0 -16 -4 -16 -10 0 -5 -7 -10
-15 -10 -8 0 -15 -4 -15 -9 0 -5 -10 -12 -22 -15 -35 -9 -65 -38 -72 -69 -6
-23 -3 -30 13 -34 14 -4 19 -12 17 -31 -3 -24 -26 -46 -26 -24 0 6 -8 9 -17 7
-10 -2 -22 -4 -26 -4 -5 -1 -5 -6 -1 -13 4 -7 3 -8 -4 -4 -6 4 -9 13 -6 21 4
8 10 13 14 10 12 -7 23 13 25 45 1 24 -1 25 -34 21 -23 -3 -29 -6 -17 -9 11
-2 25 -10 32 -17 11 -10 9 -14 -9 -19 -12 -3 -32 -6 -43 -6 -26 0 -50 -25 -34
-35 7 -4 7 -11 2 -18 -14 -18 -21 -57 -11 -57 4 0 6 -6 3 -14 -5 -13 -12 -13
-52 -1 -41 13 -48 13 -55 0 -9 -17 -37 -20 -37 -5 0 5 8 14 18 19 27 16 9 13
-25 -4 -17 -9 -36 -22 -43 -30 -7 -8 -17 -15 -22 -15 -6 0 -38 -22 -72 -49
-34 -26 -73 -54 -86 -61 -34 -18 -80 -62 -80 -77 0 -6 -9 -15 -20 -18 -35 -11
-99 -58 -105 -76 -3 -9 -12 -20 -20 -23 -8 -3 -12 -14 -10 -26 2 -11 0 -18 -5
-15 -14 9 -38 -5 -43 -27 -4 -15 -9 -18 -23 -10 -22 12 -74 -16 -74 -40 0 -21
-40 -68 -60 -71 -22 -4 -98 -56 -144 -99 -21 -21 -43 -38 -48 -38 -4 0 -16 -8
-26 -17 -65 -65 -139 -126 -159 -134 -14 -5 -21 -13 -18 -19 3 -5 1 -10 -5
-10 -6 0 -8 -5 -5 -10 4 -6 2 -9 -3 -8 -9 3 -50 -31 -170 -139 -26 -24 -50
-43 -54 -43 -5 0 -8 -11 -8 -25 0 -19 -5 -25 -23 -25 -13 0 -36 -14 -54 -32
-16 -18 -106 -105 -198 -193 -93 -88 -193 -186 -224 -217 -97 -98 -268 -280
-323 -344 -29 -34 -82 -94 -118 -134 -36 -40 -72 -83 -80 -95 -8 -12 -47 -58
-87 -101 -96 -106 -140 -163 -158 -201 -8 -18 -19 -33 -23 -33 -12 0 -116
-131 -134 -170 -10 -19 -35 -52 -58 -74 -22 -21 -40 -42 -40 -46 0 -4 -14 -23
-31 -41 -17 -19 -40 -54 -51 -77 -14 -31 -30 -48 -53 -58 -27 -11 -37 -22 -45
-55 -6 -23 -21 -51 -34 -63 -18 -18 -70 -90 -111 -157 -5 -9 -19 -29 -29 -45
-11 -16 -41 -63 -68 -104 -26 -41 -56 -86 -66 -100 -10 -14 -31 -47 -46 -75
-16 -27 -39 -62 -53 -76 -13 -14 -26 -39 -29 -55 -3 -16 -18 -42 -34 -57 -17
-15 -33 -40 -36 -55 -4 -15 -15 -36 -24 -47 -19 -20 -120 -203 -120 -215 0 -3
-11 -17 -25 -30 -14 -13 -25 -28 -25 -34 0 -13 -52 -119 -62 -126 -11 -9 -38
-77 -38 -98 0 -10 -13 -28 -30 -40 -16 -13 -30 -30 -30 -38 0 -9 -20 -58 -45
-110 -25 -51 -45 -96 -45 -101 0 -5 -9 -16 -20 -26 -11 -9 -20 -23 -20 -31 0
-8 -13 -40 -30 -71 -16 -31 -30 -65 -30 -75 0 -11 -4 -22 -10 -25 -12 -7 -46
-83 -55 -123 -3 -17 -13 -36 -20 -42 -16 -13 -85 -154 -85 -173 0 -7 -11 -32
-24 -57 -13 -25 -26 -58 -30 -74 -4 -15 -16 -40 -27 -55 -11 -15 -25 -48 -30
-72 -6 -24 -28 -83 -50 -132 -21 -48 -39 -93 -39 -100 0 -6 -6 -23 -13 -37 -7
-14 -26 -61 -41 -105 -16 -44 -37 -98 -47 -120 -10 -22 -30 -80 -44 -130 -14
-49 -34 -104 -45 -123 -11 -18 -20 -42 -20 -52 0 -11 -16 -61 -36 -112 -19
-51 -41 -120 -49 -153 -7 -33 -22 -87 -33 -120 -11 -33 -26 -87 -33 -120 -7
-33 -16 -68 -21 -78 -5 -10 -13 -39 -18 -65 -4 -26 -13 -60 -18 -77 -22 -64
-42 -143 -42 -167 0 -14 -6 -41 -14 -59 -8 -19 -18 -67 -21 -107 -4 -40 -12
-75 -16 -78 -5 -3 -9 -23 -9 -44 0 -21 -4 -42 -10 -45 -5 -3 -10 -18 -10 -33
0 -27 -18 -86 -33 -109 -5 -7 -17 -13 -28 -13 -10 0 -19 -7 -19 -15 0 -8 6
-15 14 -15 21 0 24 -19 15 -80 -5 -30 -13 -93 -19 -139 -6 -46 -12 -87 -15
-91 -5 -8 -38 -218 -55 -345 -6 -49 -15 -100 -20 -111 -5 -12 -6 -39 -3 -61 3
-24 0 -50 -8 -64 -7 -13 -12 -35 -10 -49 1 -14 -5 -70 -14 -125 -9 -55 -21
-149 -27 -210 -11 -128 -14 -147 -27 -197 -5 -21 -6 -53 -2 -70 11 -48 5 -100
-16 -158 -3 -8 -5 -57 -3 -108 1 -78 -1 -97 -16 -113 -15 -17 -16 -22 -5 -29
11 -6 12 -20 7 -57 -4 -26 -10 -100 -12 -163 -7 -178 -14 -402 -18 -540 -1
-69 -6 -234 -10 -368 -6 -184 -5 -246 4 -257 8 -10 10 -27 4 -52 -4 -21 -9
-141 -10 -268 -1 -126 -3 -237 -4 -245 -1 -8 2 -42 8 -75 8 -49 7 -63 -4 -76
-13 -15 -13 -17 2 -23 13 -5 15 -14 11 -44 -4 -20 -2 -44 3 -52 6 -10 4 -22
-5 -37 -9 -13 -11 -23 -4 -25 6 -2 12 -15 13 -28 15 -118 20 -147 28 -157 10
-13 12 -44 6 -148 -3 -38 0 -76 5 -83 6 -7 12 -39 14 -70 2 -31 8 -66 12 -77
5 -11 14 -65 21 -120 6 -55 13 -111 15 -125 2 -14 7 -59 11 -100 5 -52 14 -84
28 -103 17 -23 21 -44 21 -105 0 -43 4 -82 8 -89 4 -7 9 -38 12 -70 2 -32 6
-65 8 -73 7 -19 20 -88 23 -120 1 -14 9 -47 17 -75 10 -36 11 -56 4 -73 -8
-16 -7 -26 1 -34 7 -7 12 -34 12 -61 0 -26 4 -56 9 -66 6 -9 12 -40 14 -67 8
-85 31 -204 39 -204 5 0 8 -15 7 -32 -1 -18 6 -55 16 -83 24 -70 30 -154 10
-161 -25 -10 -17 -25 10 -18 29 7 33 0 38 -75 2 -29 9 -56 14 -60 6 -3 12 -28
15 -56 3 -27 14 -70 25 -95 11 -25 23 -57 27 -72 5 -24 3 -28 -19 -34 -32 -8
-31 -15 4 -35 30 -18 61 -95 75 -187 6 -38 4 -44 -13 -49 -13 -3 -17 -11 -14
-24 6 -21 29 -26 36 -6 2 6 3 4 2 -5 -2 -9 3 -19 10 -22 7 -2 15 -19 18 -38 6
-39 24 -100 68 -230 22 -66 22 -76 0 -83 -29 -9 -26 -25 4 -25 29 0 31 -7 9
-31 -20 -22 -4 -56 28 -61 18 -2 24 -12 29 -41 3 -21 11 -43 18 -50 6 -6 11
-19 11 -28 0 -10 6 -30 14 -46 20 -41 36 -96 36 -125 0 -15 6 -33 14 -41 13
-13 39 -86 41 -113 0 -6 6 -18 12 -25 6 -8 15 -39 19 -69 5 -39 14 -62 30 -77
18 -16 24 -33 24 -62 0 -29 15 -69 51 -140 28 -55 51 -115 51 -133 1 -18 15
-59 31 -91 22 -42 30 -73 31 -112 0 -44 4 -56 18 -61 10 -3 19 -11 19 -17 6
-61 11 -83 24 -97 43 -47 149 -300 161 -383 3 -26 13 -51 21 -55 21 -12 32
-33 100 -182 18 -41 38 -82 43 -90 17 -27 50 -102 50 -113 0 -6 6 -18 13 -26
8 -9 22 -38 32 -66 10 -27 23 -56 29 -64 6 -7 20 -31 31 -52 11 -21 44 -79 73
-127 28 -49 52 -100 52 -113 0 -28 13 -51 26 -48 28 5 34 -4 34 -48 0 -56 10
-76 33 -67 12 4 17 1 17 -12 0 -36 32 -102 56 -114 13 -8 24 -21 24 -30 0 -9
9 -27 20 -40 11 -13 20 -35 20 -50 0 -16 12 -41 29 -60 16 -19 34 -50 40 -70
6 -20 27 -51 46 -69 19 -17 35 -38 35 -45 0 -7 7 -19 16 -27 8 -7 13 -21 10
-32 -3 -12 8 -32 30 -56 19 -21 34 -46 34 -56 0 -9 22 -45 48 -79 47 -59 93
-126 199 -284 29 -42 61 -90 73 -107 35 -50 100 -163 100 -174 0 -6 14 -26 31
-46 19 -21 29 -41 25 -51 -3 -8 -1 -25 6 -37 14 -28 89 -124 120 -155 13 -13
25 -33 28 -45 3 -12 20 -31 38 -42 17 -11 31 -28 32 -37 0 -23 37 -85 77 -131
18 -20 33 -41 33 -46 0 -4 27 -36 59 -70 32 -34 66 -77 76 -96 9 -20 27 -42
41 -51 13 -9 24 -22 24 -30 0 -7 19 -35 43 -62 24 -26 53 -65 66 -85 12 -21
32 -42 42 -48 11 -5 40 -43 66 -82 49 -78 110 -147 131 -147 7 0 16 -8 19 -18
11 -29 73 -110 88 -116 8 -3 15 -13 15 -23 0 -18 43 -74 179 -238 37 -44 75
-93 84 -108 11 -17 24 -26 33 -23 8 3 14 -1 14 -9 0 -8 13 -29 28 -47 15 -18
40 -51 54 -73 45 -67 92 -116 114 -118 12 0 21 -8 20 -17 -1 -8 9 -16 22 -18
14 -2 22 -10 22 -23 0 -14 6 -18 23 -16 17 1 21 -3 20 -18 -2 -11 4 -29 12
-39 11 -15 17 -16 28 -7 20 16 45 -13 29 -32 -16 -18 31 -67 63 -67 20 0 25
-5 25 -24 0 -27 24 -51 40 -41 18 11 60 -35 60 -66 0 -35 44 -73 77 -64 18 4
26 -1 38 -26 9 -17 14 -37 11 -46 -4 -9 5 -23 21 -36 14 -12 42 -37 61 -55 44
-42 66 -53 87 -46 13 5 15 2 9 -19 -5 -22 -2 -29 20 -38 14 -7 26 -19 26 -27
0 -16 93 -112 108 -112 6 0 41 -30 79 -67 131 -129 192 -180 205 -172 16 10
38 -8 38 -32 0 -17 96 -119 112 -119 7 0 198 -168 228 -200 30 -33 129 -102
157 -109 21 -5 29 -14 31 -34 2 -15 7 -27 11 -27 5 0 35 -25 67 -56 33 -30 83
-69 112 -85 28 -17 52 -36 52 -43 0 -28 88 -86 125 -83 15 2 21 -5 23 -26 2
-17 14 -34 30 -44 15 -9 44 -30 65 -46 29 -22 41 -27 50 -18 18 18 37 13 37
-9 0 -11 7 -23 15 -27 9 -3 22 -18 31 -34 12 -24 18 -28 34 -19 26 14 26 14
39 -19 12 -28 60 -71 80 -71 6 0 14 -6 18 -14 10 -18 114 -96 128 -96 6 0 16
-9 23 -20 7 -11 18 -20 25 -20 7 0 33 -17 59 -37 25 -21 69 -51 97 -68 28 -16
51 -33 51 -36 0 -4 13 -9 29 -12 16 -4 45 -19 63 -36 19 -16 59 -41 90 -54 31
-14 60 -32 64 -40 5 -8 25 -22 44 -32 19 -10 42 -23 50 -30 8 -7 38 -18 66
-25 37 -10 66 -26 104 -62 29 -26 58 -48 66 -48 22 0 112 -53 121 -72 13 -26
99 -86 140 -97 21 -6 65 -31 98 -56 33 -24 69 -45 79 -45 11 0 30 -9 42 -21
12 -11 30 -21 42 -22 11 0 18 -6 15 -14 -5 -13 52 -53 77 -53 9 0 34 -18 55
-40 25 -26 57 -46 86 -55 26 -7 58 -20 71 -29 12 -8 35 -17 49 -20 22 -3 26
-1 22 15 -9 31 12 22 51 -23 64 -76 75 -88 87 -88 6 0 8 7 5 16 -3 9 -3 20 0
26 7 12 44 -20 44 -38 0 -8 12 -21 26 -31 23 -15 28 -15 38 -2 6 8 23 13 39
11 23 -3 26 -7 21 -28 -8 -32 11 -54 46 -54 16 0 42 -11 59 -26 19 -16 37 -23
49 -20 12 4 26 -2 41 -18 13 -13 36 -30 52 -36 16 -7 29 -16 29 -21 0 -5 7 -6
15 -2 9 3 23 -1 33 -10 27 -24 174 -97 195 -97 11 0 28 -6 36 -14 9 -7 81 -39
161 -71 80 -31 182 -72 228 -92 46 -19 108 -37 140 -40 84 -8 198 -47 238 -82
19 -17 43 -31 53 -31 11 0 44 -13 75 -30 31 -16 73 -32 94 -36 20 -4 73 -20
117 -37 186 -69 274 -101 345 -123 73 -23 115 -31 75 -14 -16 7 -13 9 18 9 38
1 51 -14 20 -22 -10 -2 -1 -7 22 -12 46 -9 146 -38 225 -67 30 -11 84 -21 119
-23 35 -2 67 -8 70 -13 11 -16 49 -32 78 -32 15 -1 39 -7 53 -15 14 -8 47 -14
73 -15 26 0 63 -6 81 -14 18 -7 53 -17 77 -22 24 -4 46 -8 49 -9 3 0 28 -4 55
-9 28 -4 70 -14 95 -22 45 -15 81 -23 325 -68 72 -14 163 -32 203 -40 40 -9
82 -15 95 -13 12 2 15 2 7 -1 -8 -3 44 -19 115 -37 72 -18 150 -40 175 -48 45
-16 138 -33 153 -29 10 3 157 -27 168 -34 12 -7 183 -34 249 -39 30 -3 91 -7
134 -10 44 -3 100 -10 125 -16 25 -5 203 -12 397 -14 297 -3 357 -6 390 -20
71 -30 229 -47 434 -47 107 -1 220 4 250 10 30 6 84 16 120 22 36 6 84 16 108
22 31 8 50 8 68 -1 35 -16 105 -14 148 4 20 9 81 22 136 30 55 7 104 16 110
20 20 12 178 6 212 -8 19 -8 41 -11 49 -7 12 6 206 28 264 30 11 0 65 5 120
10 55 5 136 12 180 15 44 3 91 8 105 11 14 4 62 8 108 10 45 1 110 10 143 18
33 9 73 16 88 16 16 0 62 12 102 26 41 14 121 32 179 39 97 12 143 20 320 60
36 8 106 21 155 30 50 8 117 22 150 30 33 8 101 23 152 35 51 12 132 34 181
50 49 16 125 32 168 35 76 7 276 49 379 80 28 8 124 34 215 56 103 26 191 54
234 76 37 19 74 32 82 29 17 -7 128 26 181 53 23 11 53 21 65 21 21 0 175 52
403 135 50 18 117 42 150 54 33 12 82 33 109 46 28 14 59 25 71 25 11 0 29 6
40 14 35 24 150 66 182 66 17 0 36 7 43 15 7 8 23 15 37 15 24 0 63 16 73 30
3 4 52 28 110 54 58 26 115 54 127 62 13 8 61 30 108 49 47 19 100 45 118 58
17 14 43 28 56 32 12 4 39 17 57 30 19 13 63 33 97 44 34 12 84 37 111 56 27
19 54 35 60 35 19 0 129 55 195 99 35 22 83 46 105 52 23 6 60 22 83 35 23 13
46 24 52 24 6 0 40 20 77 45 36 25 70 45 77 45 19 0 87 52 87 67 0 8 6 13 13
11 14 -3 147 71 147 82 0 12 100 70 120 70 10 0 22 5 25 10 3 6 -2 10 -12 10
-14 0 -15 2 -4 9 7 5 21 6 31 4 10 -3 28 4 41 16 13 11 65 46 114 78 50 32
101 66 115 76 14 9 76 51 137 91 62 41 127 86 145 100 18 14 69 53 113 86 121
91 163 124 244 193 41 34 87 69 103 77 15 9 56 39 90 67 35 29 93 76 129 106
36 30 76 60 89 67 14 7 52 39 85 70 150 142 252 226 307 251 17 7 32 25 39 46
6 18 20 38 32 44 12 7 45 33 73 58 27 25 86 75 130 111 43 36 97 83 120 105
47 46 95 87 173 147 30 23 114 100 187 172 73 72 182 179 243 237 87 83 111
112 111 133 0 27 3 30 52 40 19 4 30 15 35 35 5 17 31 47 66 76 33 26 67 60
76 76 10 16 35 42 56 59 21 17 47 44 57 61 10 16 25 32 33 36 9 3 27 24 40 48
14 23 51 67 83 97 31 31 89 93 127 139 39 46 98 112 133 147 34 35 76 85 94
110 17 26 44 61 59 77 16 17 37 46 46 65 24 47 78 122 132 183 24 28 49 65 57
82 7 17 20 38 29 45 24 20 130 152 145 181 16 29 64 92 102 134 15 17 32 41
37 55 10 23 70 114 159 238 20 29 53 79 72 111 19 32 49 78 65 101 17 23 41
60 55 81 14 21 43 64 65 96 22 32 47 74 56 93 9 20 27 43 40 52 14 8 36 33 50
54 14 22 42 64 62 95 20 30 37 61 37 69 0 7 16 32 35 56 19 23 35 51 35 61 0
11 5 24 11 30 6 6 15 33 20 59 5 25 16 60 24 77 8 17 15 36 15 43 0 7 6 17 13
21 7 4 28 33 45 64 18 31 39 62 47 69 8 7 15 18 15 25 0 8 10 26 23 42 27 33
127 234 127 256 0 8 7 20 15 27 8 7 15 21 15 31 0 11 6 19 14 19 22 0 29 18
30 69 1 42 3 46 28 49 22 3 28 10 38 52 6 26 13 59 14 72 4 32 23 66 45 77 13
7 16 18 13 41 -4 31 21 92 55 132 8 9 19 34 24 55 6 21 15 56 20 78 6 22 18
53 28 70 10 16 16 36 14 43 -5 13 30 141 48 174 5 10 9 25 9 33 0 8 4 15 9 15
5 0 12 9 16 20 3 10 23 51 45 89 46 84 75 171 94 283 15 87 39 174 75 270 11
31 18 63 15 71 -3 8 -1 18 5 22 6 3 11 16 11 28 1 25 22 57 38 57 17 0 22 28
6 40 -18 16 -18 34 0 49 7 6 11 22 8 37 -3 20 0 26 17 31 17 4 19 8 10 19 -9
11 -6 16 13 23 22 8 34 27 51 83 3 9 -1 22 -9 28 -25 22 -16 61 22 96 34 32
43 69 17 69 -35 0 -17 61 22 71 17 4 25 13 25 28 0 11 7 30 15 40 19 26 19 72
0 80 -23 9 -19 44 6 48 32 5 49 36 27 49 -22 12 -23 56 -4 101 8 18 18 60 23
93 8 58 9 60 38 60 25 0 30 4 31 25 1 14 4 32 8 41 8 19 -9 35 -19 19 -3 -5
-10 -10 -16 -10 -14 0 -11 44 4 64 12 17 14 17 20 2 8 -20 26 -21 34 0 3 8 -4
25 -17 39 -21 23 -22 28 -12 64 7 21 12 48 12 61 0 12 6 34 14 48 13 26 43
159 53 235 3 21 11 37 18 37 8 0 21 14 29 32 16 31 10 47 -17 48 -5 0 -7 19
-5 43 2 35 7 43 26 45 25 4 31 39 10 60 -9 9 -9 15 -1 23 6 6 9 28 6 50 -5 34
-3 40 20 48 32 12 39 34 37 118 -1 38 -1 75 -1 83 1 8 0 24 -1 35 -1 11 -1 44
0 73 2 43 6 54 23 60 19 7 19 9 5 21 -20 17 -21 35 -1 27 18 -7 22 39 4 50 -7
4 -1 12 17 20 28 12 28 13 7 19 -20 6 -21 12 -16 63 3 32 12 66 19 76 10 14
10 23 3 33 -6 7 -9 32 -6 55 6 53 18 267 22 408 2 58 4 113 4 123 1 11 10 21
21 24 24 6 23 3 6 39 -14 29 -16 150 -3 171 4 6 3 21 -1 34 -11 29 3 125 25
167 13 27 14 37 5 52 -20 32 -14 276 7 305 22 28 20 46 -5 55 -24 9 -26 14
-19 47 4 20 6 80 5 132 -3 131 -1 170 10 192 7 12 6 20 -1 25 -7 4 -9 23 -5
53 9 61 9 60 -3 107 -6 23 -7 60 -3 84 4 24 4 73 0 109 -7 64 -28 332 -32 418
-2 24 -5 46 -9 49 -3 4 0 21 7 39 12 27 12 38 2 57 -7 14 -16 78 -20 144 -4
65 -11 135 -16 154 -5 19 -11 76 -15 125 -3 50 -10 119 -15 155 -4 36 -9 74
-9 85 -4 88 -27 285 -34 292 -4 3 -2 12 4 20 8 9 8 21 1 40 -16 43 -23 82 -28
153 -3 36 -9 79 -14 95 -4 17 -11 53 -15 80 -4 28 -13 57 -20 65 -8 9 -17 64
-24 132 -5 64 -17 133 -26 153 -8 21 -15 56 -15 78 0 40 -11 84 -37 144 -7 17
-13 38 -13 46 0 9 -4 18 -9 22 -5 3 -12 31 -16 63 -3 31 -10 64 -14 72 -5 9
-12 30 -15 48 -4 17 -12 34 -17 37 -5 4 -9 19 -9 35 0 30 -36 138 -51 154 -5
6 -9 25 -9 44 0 19 -20 95 -45 169 -25 74 -45 144 -45 156 0 12 -7 31 -15 41
-8 11 -15 32 -15 47 0 15 -8 43 -19 61 -10 18 -24 62 -31 98 -7 36 -18 72 -25
80 -7 8 -16 26 -20 40 -4 14 -13 32 -20 40 -7 8 -16 40 -20 70 -4 30 -15 66
-25 80 -10 14 -21 46 -24 72 -3 26 -13 65 -22 85 -27 62 -64 167 -64 183 0 8
-10 33 -22 55 -11 22 -25 60 -30 85 -4 25 -23 77 -42 115 -19 39 -46 102 -61
140 -14 39 -33 83 -41 98 -8 16 -14 33 -14 39 0 6 -12 36 -26 67 -14 31 -35
76 -46 101 -11 25 -33 71 -49 102 -16 32 -29 62 -29 68 0 16 -34 90 -42 90 -4
0 -15 17 -24 38 -9 20 -29 64 -45 97 -15 33 -40 89 -54 125 -46 113 -68 160
-77 160 -4 0 -17 24 -30 53 -27 63 -86 177 -102 196 -16 20 -73 120 -91 161
-33 74 -80 161 -96 179 -9 10 -26 36 -37 57 -26 52 -81 141 -114 185 -16 20
-28 38 -28 41 0 3 -22 42 -50 88 -27 46 -50 88 -50 93 0 5 -18 38 -40 73 -22
35 -40 67 -40 71 0 5 -18 33 -40 63 -22 30 -46 69 -53 85 -15 33 -59 101 -80
125 -29 34 -127 194 -127 208 0 7 -4 12 -9 12 -8 0 -17 13 -106 150 -27 41
-62 93 -79 114 -17 22 -39 55 -49 74 -10 19 -27 43 -38 55 -10 11 -19 27 -19
35 0 7 -13 25 -30 39 -16 13 -30 30 -30 35 0 6 -9 20 -20 32 -32 33 -77 90
-81 103 -2 7 -37 48 -76 92 -40 44 -73 82 -73 85 0 4 -14 21 -31 39 -17 17
-43 48 -57 67 -15 19 -40 51 -57 71 -16 20 -41 51 -55 69 -14 18 -37 44 -53
59 -15 14 -37 36 -50 47 -12 12 -33 39 -47 60 -14 21 -53 67 -87 102 -35 35
-63 68 -63 73 0 4 -45 54 -100 110 -55 56 -100 105 -100 109 0 12 -50 50 -65
50 -8 0 -15 5 -15 11 0 13 -14 29 -117 136 -40 41 -73 79 -73 83 0 5 -18 19
-40 31 -22 13 -40 27 -40 32 0 6 -42 51 -94 102 -52 51 -102 105 -111 119 -10
14 -22 26 -28 26 -6 0 -34 24 -62 53 -47 47 -177 169 -323 302 -30 28 -80 75
-111 106 -31 30 -81 75 -110 100 -30 24 -65 53 -77 64 -105 98 -192 174 -218
191 -17 12 -49 38 -71 58 -22 21 -62 52 -90 71 -27 19 -76 59 -109 89 -32 31
-64 56 -71 56 -7 0 -24 13 -38 29 -28 33 -133 121 -144 121 -5 0 -24 14 -43
30 -19 16 -38 30 -42 30 -4 0 -14 8 -24 17 -25 25 -186 143 -211 156 -13 5
-23 14 -23 19 0 4 -8 8 -18 8 -10 0 -31 14 -47 30 -16 17 -34 30 -39 30 -6 0
-24 14 -39 30 -16 17 -34 30 -41 30 -6 0 -27 13 -46 30 -19 16 -45 29 -57 30
-12 0 -28 8 -35 18 -15 19 -126 98 -154 109 -11 4 -47 26 -81 50 -34 24 -65
43 -68 43 -3 0 -33 18 -65 40 -32 22 -62 40 -65 40 -4 0 -25 15 -48 33 -23 19
-62 44 -87 56 -25 13 -47 27 -50 31 -3 4 -30 20 -60 35 -30 15 -62 33 -70 40
-16 14 -65 40 -245 135 -66 35 -141 78 -166 97 -26 18 -52 33 -58 33 -6 0 -19
4 -29 8 -9 5 -38 19 -65 32 -26 13 -58 33 -71 45 -14 13 -52 37 -87 54 -34 17
-67 35 -73 40 -6 5 -59 33 -117 63 -58 30 -121 66 -141 81 -19 15 -40 27 -47
27 -11 0 -116 56 -186 100 -16 10 -37 19 -46 19 -9 1 -22 8 -29 16 -7 8 -27
15 -44 15 -18 0 -42 9 -54 20 -12 11 -28 20 -37 20 -17 0 -56 18 -65 29 -3 4
-32 20 -65 36 -33 17 -62 32 -65 35 -3 4 -27 14 -55 24 -27 10 -54 23 -60 27
-5 5 -19 9 -32 9 -13 0 -23 5 -23 10 0 6 -9 10 -20 10 -11 0 -20 5 -20 11 0 5
-4 8 -9 4 -5 -3 -16 1 -24 9 -20 20 -85 56 -101 56 -7 0 -37 13 -67 30 -37 19
-64 28 -82 25 -21 -4 -25 -2 -21 10 4 8 1 15 -6 15 -7 0 -41 14 -76 31 -40 19
-72 28 -84 24 -13 -4 -22 -1 -26 9 -10 25 -89 57 -147 59 -31 1 -53 6 -50 11
4 5 -3 7 -15 4 -13 -4 -19 -2 -16 6 5 15 -4 27 -41 51 -27 18 -59 33 -175 83
-19 8 -55 29 -80 47 -25 18 -74 43 -110 55 -36 12 -78 28 -95 35 -16 7 -68 27
-115 45 -47 17 -101 38 -120 47 -42 19 -148 53 -164 53 -6 0 -54 14 -106 30
-52 17 -106 30 -120 30 -27 0 -137 33 -167 49 -15 8 -68 20 -163 35 -8 2 -32
10 -54 19 -21 10 -50 17 -65 17 -15 0 -32 5 -37 10 -6 6 -40 13 -75 15 -102 7
-113 9 -127 25 -11 13 -13 13 -22 -1 -5 -9 -22 -20 -37 -24 -15 -3 -32 -12
-36 -18 -6 -8 -7 -6 -3 6 3 9 1 17 -5 17 -6 0 -9 7 -5 15 3 9 0 15 -8 15 -8 0
-17 6 -19 13 -4 9 -8 8 -16 -3 -6 -8 -11 -11 -11 -6 0 5 -7 3 -15 -4 -9 -8
-15 -9 -15 -2 0 6 5 14 10 17 14 8 3 25 -16 25 -10 0 -12 -5 -8 -12 6 -10 5
-10 -7 -1 -13 11 -63 26 -129 40 -14 2 -32 7 -40 10 -21 8 -29 10 -88 22 -30
6 -58 13 -63 17 -5 3 -16 -1 -24 -10 -9 -8 -25 -13 -38 -10 -52 12 -81 13 -97
4 -11 -6 -21 -5 -28 2 -14 14 -16 29 -3 26 5 -2 9 2 9 7 0 6 -4 9 -9 8 -5 -2
-9 2 -9 7 0 6 -8 10 -18 10 -10 0 -22 4 -27 9 -12 10 -95 22 -95 12 0 -3 9
-12 20 -19 13 -8 20 -23 20 -45 0 -24 -3 -28 -10 -17 -5 8 -16 15 -24 15 -9 0
-22 9 -30 20 -13 18 -14 18 -9 -10 3 -25 2 -27 -7 -12 -6 9 -20 17 -30 17 -24
0 -26 13 -3 31 14 13 13 15 -13 19 -19 4 -29 11 -28 23 1 9 -2 17 -7 17 -5 0
-9 -6 -9 -12 0 -10 -2 -10 -9 0 -4 7 -28 16 -52 18 -24 3 -46 9 -49 13 -3 4
-12 8 -20 9 -17 1 -60 7 -111 17 -41 8 -55 -4 -63 -50 -2 -17 -5 -30 -6 -30
-1 0 -3 -8 -5 -17 -2 -10 3 -22 12 -26 12 -7 12 -11 -3 -23 -16 -12 -17 -12
-9 1 5 9 0 8 -13 -4 -12 -11 -25 -16 -29 -13 -3 4 -1 7 6 7 8 0 9 5 2 17 -7
13 -4 25 10 44 16 23 16 29 4 45 -8 12 -10 23 -4 30 6 7 4 16 -5 23 -11 9 -18
7 -32 -12 -27 -34 -69 -23 -69 18 0 29 -1 30 -75 42 -41 6 -104 18 -140 27
-91 20 -197 28 -205 16 -4 -6 -11 -8 -16 -4 -5 3 -7 10 -4 15 4 5 -10 9 -29 9
-28 0 -34 -3 -29 -16z m347 -70 c9 -3 16 -10 16 -16 0 -5 -4 -7 -9 -4 -5 3
-12 -4 -16 -17 l-7 -22 -7 25 c-11 36 -5 45 23 34z m126 -65 c0 -18 -5 -29
-14 -29 -7 0 -19 -6 -25 -14 -7 -8 -20 -13 -29 -11 -9 2 -23 4 -29 4 -17 1
-17 51 0 51 6 0 27 -4 45 -9 24 -7 31 -7 25 2 -14 22 -11 33 8 34 15 1 19 -5
19 -28z m-190 -10 c0 -5 5 -9 11 -9 5 0 7 5 4 10 -3 6 -4 10 -1 10 11 0 34
-60 25 -66 -6 -3 -8 -13 -5 -23 4 -11 2 -10 -9 4 -9 11 -13 25 -11 32 3 7 -1
13 -8 13 -8 0 -16 6 -19 13 -3 8 -9 6 -19 -7 -13 -16 -15 -16 -15 -2 0 9 4 16
9 16 4 0 8 7 8 15 0 9 6 12 15 9 8 -4 15 -10 15 -15z m67 -5 c0 -7 -6 -10 -14
-7 -7 3 -13 8 -13 12 0 4 6 8 13 8 8 0 14 -6 14 -13z m393 -9 c-12 -15 -30
-12 -30 6 0 5 10 9 21 9 18 0 19 -2 9 -15z m-1120 -25 c0 -5 -5 -10 -11 -10
-5 0 -7 5 -4 10 3 6 8 10 11 10 2 0 4 -4 4 -10z m64 -12 c-6 -10 -5 -10 7 -1
12 10 17 8 27 -8 15 -23 6 -45 -11 -31 -7 5 -20 8 -29 7 -18 -3 -25 24 -11 38
11 12 24 7 17 -5z m1266 2 c0 -5 -5 -10 -11 -10 -5 0 -7 5 -4 10 3 6 8 10 11
10 2 0 4 -4 4 -10z m-4490 -26 c0 -8 -9 -14 -20 -14 -18 0 -19 3 -10 20 12 22
30 18 30 -6z m4470 -11 c0 -7 -11 -13 -24 -13 -28 0 -51 -24 -42 -45 3 -8 1
-15 -5 -15 -8 0 -8 39 0 102 2 12 71 -15 71 -29z m-640 12 c0 -8 -4 -15 -8
-15 -5 0 -9 7 -9 15 0 8 4 15 9 15 4 0 8 -7 8 -15z m263 -14 c3 -14 1 -18 -9
-14 -8 3 -14 11 -14 19 0 21 17 17 23 -5z m211 -2 c-3 -5 -11 -6 -17 -2 -7 4
-4 -5 6 -20 20 -31 23 -49 4 -23 -11 15 -17 17 -35 7 -13 -7 -27 -9 -32 -6
-12 7 -14 45 -2 46 22 2 56 10 60 14 8 8 23 -6 16 -16z m411 11 c11 19 26 0
15 -20 -8 -15 -6 -21 7 -29 10 -6 13 -11 6 -11 -6 0 -15 5 -18 10 -3 6 -19 10
-36 10 -30 0 -40 17 -14 26 8 4 12 11 8 18 -4 6 0 6 9 -2 11 -9 18 -10 23 -2z
m-4825 -27 c-26 -18 -51 -6 -26 13 10 7 24 10 32 7 12 -4 11 -8 -6 -20z m3564
18 c-9 -9 -45 -11 -39 -2 3 6 14 9 25 8 10 -1 17 -3 14 -6z m484 -32 c-10 -7
-10 -11 0 -21 14 -14 16 -32 2 -23 -6 4 -10 -7 -10 -24 0 -17 -5 -31 -10 -31
-6 0 -8 10 -4 24 3 14 1 27 -6 31 -9 6 -9 10 1 16 11 7 10 9 -3 9 -10 0 -18
-4 -18 -10 0 -5 -7 -10 -16 -10 -9 0 -14 7 -12 18 2 10 12 17 25 16 15 0 19 4
15 14 -3 10 -1 13 6 8 7 -4 12 -2 12 5 0 8 4 8 15 -1 13 -11 13 -15 3 -21z
m73 -22 c-8 -8 -11 -5 -11 9 0 27 14 41 18 19 2 -9 -1 -22 -7 -28z m-745 -12
c-12 -46 -26 -69 -26 -43 0 9 -7 21 -15 28 -8 7 -12 16 -9 21 3 5 0 9 -5 9 -6
0 -11 4 -11 9 0 5 14 8 31 7 16 -1 32 1 35 6 11 17 11 6 0 -37z m1354 31 c0
-2 -11 -11 -25 -20 -21 -14 -25 -14 -25 -2 0 8 8 17 18 19 25 7 32 7 32 3z
m218 -16 c3 -7 0 -10 -6 -6 -6 3 -12 0 -15 -6 -2 -7 -8 -10 -12 -6 -11 10 3
40 17 36 6 -2 14 -10 16 -18z m-4088 1 c0 -5 -7 -12 -16 -15 -14 -5 -15 -4 -4
9 14 17 20 19 20 6z m2776 -44 c9 3 14 13 11 24 -4 16 1 19 31 18 21 0 32 -3
26 -5 -14 -6 -6 -44 8 -44 5 0 2 -8 -8 -17 -18 -18 -54 -26 -54 -13 0 4 -7 10
-15 14 -13 4 -14 2 -5 -14 9 -16 6 -25 -10 -43 -20 -20 -22 -21 -31 -4 -6 9
-17 17 -24 17 -8 0 -15 9 -15 21 0 11 4 18 9 14 5 -3 13 0 17 6 4 7 3 9 -2 6
-6 -3 -16 3 -23 15 -7 11 -8 17 -2 13 7 -4 11 4 11 22 l0 28 30 -32 c19 -20
36 -30 46 -26z m291 20 c-7 -12 -12 -23 -12 -23 0 -1 -11 -4 -25 -8 -14 -3
-19 -3 -12 0 10 4 10 9 2 20 -13 14 -4 38 10 29 5 -3 11 -1 15 4 3 6 12 8 20
5 11 -5 12 -10 2 -27z m-200 1 c-3 -8 -6 -5 -6 6 -1 11 2 17 5 13 3 -3 4 -12
1 -19z m-956 -5 c13 -16 12 -17 -3 -4 -16 12 -18 11 -18 -3 0 -10 -4 -15 -10
-11 -10 6 -2 35 10 35 4 0 14 -8 21 -17z m269 -6 c0 -23 22 -38 37 -26 9 8 13
8 13 0 0 -6 -4 -11 -10 -11 -5 0 -10 -9 -10 -20 0 -11 7 -20 15 -20 17 0 19
-9 6 -28 -6 -11 -9 -9 -13 6 -3 10 -19 25 -37 33 -23 10 -31 20 -31 40 0 14 3
29 7 32 11 11 23 8 23 -6z m1073 -17 c-7 -27 -13 -25 -11 4 1 14 5 23 9 20 4
-2 5 -13 2 -24z m884 -2 c-3 -8 -6 -5 -6 6 -1 11 2 17 5 13 3 -3 4 -12 1 -19z
m-2200 -3 c-9 -21 7 -27 29 -9 10 9 13 13 7 9 -7 -3 -13 -1 -13 4 0 6 10 9 23
7 12 -3 25 -5 30 -5 4 -1 7 -6 7 -12 0 -8 -5 -8 -15 1 -12 10 -15 10 -15 -3 0
-8 -13 -17 -32 -21 -19 -4 -28 -10 -22 -14 16 -10 13 -42 -3 -42 -8 0 -11 5
-8 10 3 6 2 10 -4 10 -5 0 -12 -4 -15 -9 -10 -15 -46 0 -46 19 0 11 12 22 30
29 17 5 33 17 36 26 3 8 8 15 11 15 3 0 3 -7 0 -15z m2123 9 c0 -8 -19 -13
-24 -6 -3 5 1 9 9 9 8 0 15 -2 15 -3z m420 -15 c0 -6 -4 -7 -10 -4 -5 3 -10
11 -10 16 0 6 5 7 10 4 6 -3 10 -11 10 -16z m-6810 -14 c14 -19 14 -19 -2 -6
-10 7 -18 18 -18 24 0 6 1 8 3 6 1 -2 9 -13 17 -24z m4750 21 c0 -2 -7 -9 -15
-16 -12 -10 -15 -10 -15 4 0 9 7 16 15 16 8 0 15 -2 15 -4z m-120 -39 c-1 -19
-2 -20 -10 -5 -6 10 -19 15 -30 13 -27 -5 -25 4 3 14 28 11 37 5 37 -22z m678
-10 c-7 -13 -13 -16 -20 -9 -12 12 -38 5 -38 -10 0 -5 4 -7 8 -4 4 2 8 -7 9
-22 0 -16 -1 -19 -4 -9 -3 10 -11 16 -18 13 -10 -4 -11 2 -5 24 4 16 5 32 2
36 -4 5 1 2 11 -5 14 -11 17 -11 17 0 1 9 6 7 17 -6 14 -18 15 -18 9 -2 -8 24
3 44 15 26 4 -7 3 -22 -3 -32z m135 30 c3 -7 -3 -13 -13 -13 -10 0 -16 6 -13
13 3 7 9 13 13 13 4 0 10 -6 13 -13z m858 -10 c-10 -9 -11 -8 -5 6 3 10 9 15
12 12 3 -3 0 -11 -7 -18z m457 11 c-2 -7 -7 -16 -13 -20 -6 -4 -2 -8 8 -8 14
0 15 -3 5 -19 -16 -27 -44 -20 -40 10 4 26 19 49 33 49 5 0 8 -6 7 -12z
m-7158 -2 c0 -3 -4 -8 -10 -11 -5 -3 -10 -1 -10 4 0 6 5 11 10 11 6 0 10 -2
10 -4z m2080 -16 c-12 -22 -60 -50 -85 -50 -9 0 -29 -7 -44 -14 -28 -15 -71
-11 -71 6 0 11 65 40 103 44 15 2 40 10 55 18 40 22 55 21 42 -4z m2790 0 c0
-5 -4 -10 -10 -10 -5 0 -10 5 -10 10 0 6 5 10 10 10 6 0 10 -4 10 -10z m-4547
-28 c-13 -8 -12 -45 2 -76 6 -13 5 -21 -3 -24 -7 -2 -10 -8 -6 -13 9 -16 -24
-10 -41 7 -9 9 -13 24 -10 35 5 15 3 17 -11 12 -12 -4 -15 -2 -12 8 3 8 10 13
16 12 6 -2 9 4 6 12 -5 13 6 20 28 16 4 0 10 9 13 20 5 16 10 18 18 10 9 -9 9
-14 0 -19z m4254 13 c0 -8 -4 -12 -9 -9 -5 3 -6 10 -3 15 9 13 12 11 12 -6z
m245 -8 c-7 -8 -8 -18 -4 -22 4 -5 1 -5 -5 -1 -10 5 -10 11 -1 26 7 11 14 17
17 15 2 -3 -1 -11 -7 -18z m259 -40 c-13 -13 -41 -1 -41 18 0 9 5 22 12 29 10
11 15 8 26 -12 8 -16 9 -29 3 -35z m2244 34 c-6 -5 -25 10 -25 20 0 5 6 4 14
-3 8 -7 12 -15 11 -17z m-2182 -12 c-6 -20 -21 -34 -29 -26 -10 10 8 56 21 51
7 -3 11 -14 8 -25z m98 7 c-8 -10 -9 -16 -1 -21 5 -3 10 -16 10 -27 0 -12 -3
-18 -7 -15 -3 4 -12 2 -19 -4 -8 -7 -14 -6 -20 2 -5 8 -3 9 6 4 9 -5 11 -4 6
4 -4 6 -12 9 -17 6 -5 -4 -9 5 -9 19 0 19 5 26 20 26 11 0 23 7 27 15 3 9 8
14 11 11 3 -3 -1 -12 -7 -20z m693 9 c-4 -8 -11 -12 -17 -8 -6 4 -8 -2 -5 -15
4 -12 0 -23 -7 -26 -7 -2 -16 5 -19 17 -9 33 -8 35 17 40 12 2 25 5 29 6 4 0
5 -6 2 -14z m301 5 c3 -5 1 -10 -4 -10 -6 0 -11 5 -11 10 0 6 2 10 4 10 3 0 8
-4 11 -10z m-1531 -24 c-3 -13 -1 -27 5 -30 7 -5 8 -1 4 10 -4 12 -2 15 8 12
8 -3 24 -1 37 3 18 7 29 3 50 -16 15 -14 32 -25 38 -25 6 0 16 -6 22 -13 8
-10 5 -13 -13 -15 -16 -1 -26 5 -30 18 -6 20 -24 23 -38 5 -4 -6 -12 -3 -21 8
-17 22 -27 22 -19 0 4 -11 3 -14 -6 -9 -9 6 -9 3 1 -13 15 -24 24 -26 32 -8 3
6 3 2 0 -10 -4 -18 -1 -21 17 -18 12 2 24 6 26 9 8 7 47 -36 48 -53 0 -9 4
-22 9 -29 11 -18 -3 -35 -18 -23 -7 6 -17 7 -21 3 -5 -4 -5 -2 -1 5 4 7 14 10
24 7 9 -2 7 1 -6 8 -17 8 -22 18 -19 35 5 26 -2 29 -22 11 -11 -11 -13 -10 -8
3 4 12 1 15 -13 12 -10 -3 -21 0 -25 6 -4 8 -11 6 -22 -4 -16 -16 -36 -16 -33
-1 1 5 -4 13 -12 17 -10 7 -10 9 0 9 6 0 12 5 12 11 0 6 -7 9 -15 5 -8 -3 -15
-2 -15 3 0 4 -7 8 -15 8 -8 0 -15 -9 -15 -19 0 -22 -16 -24 -24 -2 -4 10 -2
13 7 9 6 -4 3 1 -8 10 l-20 17 20 -4 c14 -2 20 2 19 15 -1 12 6 17 23 17 17 0
23 4 20 14 -6 15 1 26 15 26 5 0 6 -11 2 -24z m685 2 c5 -13 4 -27 -3 -34 -15
-16 -35 -7 -31 14 2 9 4 23 4 30 1 20 21 14 30 -10z m-213 -25 c4 -16 11 -34
17 -41 14 -18 -6 -31 -39 -24 -32 6 -39 19 -20 38 15 14 20 28 17 47 0 4 3 7
9 7 5 0 13 -12 16 -27z m2129 17 c-3 -5 -12 -10 -18 -10 -7 0 -6 4 3 10 19 12
23 12 15 0z m-7155 -14 c0 -7 -9 -16 -20 -19 -11 -3 -20 -12 -20 -20 0 -7 9
-22 20 -32 26 -24 25 -37 -2 -33 -11 2 -23 -2 -25 -9 -3 -7 4 -10 19 -6 17 3
19 2 9 -5 -8 -6 -11 -17 -8 -26 5 -12 0 -16 -23 -16 -34 0 -43 12 -42 51 1 32
-18 38 -38 14 -11 -13 -10 -15 6 -9 15 5 16 4 4 -4 -8 -6 -18 -8 -22 -6 -4 3
-8 -4 -8 -15 0 -11 -4 -23 -10 -26 -14 -9 -13 28 2 43 16 16 4 25 -21 17 -12
-3 -18 -11 -15 -17 4 -7 2 -8 -5 -4 -6 4 -8 13 -4 19 4 7 8 14 8 17 0 3 5 14
11 24 11 18 13 18 35 2 29 -20 50 -22 23 -1 -18 13 -18 14 6 8 14 -3 29 -12
33 -20 14 -23 37 5 37 44 0 20 4 32 10 28 6 -3 10 -1 10 4 0 6 7 11 15 11 8 0
15 -6 15 -14z m277 -17 c-3 -10 2 -20 10 -23 8 -4 11 -1 7 5 -3 6 5 3 20 -6
29 -19 34 -43 11 -51 -8 -4 -15 -16 -15 -28 0 -20 1 -20 20 4 11 14 20 31 20
38 0 14 30 17 30 2 0 -5 7 -10 16 -10 8 0 12 -4 9 -10 -3 -5 3 -10 15 -10 16
0 19 -4 13 -17 -5 -10 -8 -31 -7 -46 1 -34 -13 -45 -30 -21 -15 20 -38 11 -29
-11 6 -16 -12 -21 -21 -6 -4 5 -25 12 -48 16 -46 8 -77 30 -55 38 7 3 5 6 -5
6 -10 1 -18 -3 -18 -9 0 -13 -37 -13 -45 -1 -3 5 -1 12 5 16 5 3 10 1 10 -5 0
-7 6 -5 15 4 9 8 27 13 45 11 16 -2 30 0 30 5 0 4 3 15 6 23 3 10 -3 20 -16
27 -20 11 -21 10 -16 -12 4 -15 0 -11 -11 10 -15 29 -15 34 -3 43 13 8 13 10
0 19 -11 7 -11 10 -2 10 7 0 11 4 8 9 -4 5 3 7 15 4 14 -4 19 -12 16 -24z
m6840 -2 c2 -25 1 -26 -15 -11 -22 23 -24 46 -4 42 10 -2 17 -14 19 -31z
m-7333 8 c-4 -8 -11 -15 -16 -15 -6 0 -5 6 2 15 7 8 14 15 16 15 2 0 1 -7 -2
-15z m4976 -11 c0 -8 -5 -14 -11 -14 -5 0 -7 5 -4 10 3 6 -2 10 -12 10 -15 0
-15 2 -3 9 17 12 30 5 30 -15z m566 6 c0 -11 -4 -20 -8 -20 -4 0 -8 9 -8 20 0
11 4 20 8 20 4 0 8 -9 8 -20z m-396 -4 c0 -2 -9 -6 -20 -9 -11 -3 -18 -1 -14
4 5 9 34 13 34 5z m564 -17 c-3 -5 -10 -7 -15 -3 -5 3 -7 10 -3 15 3 5 10 7
15 3 5 -3 7 -10 3 -15z m-354 1 c8 -5 11 -10 5 -11 -5 0 1 -5 15 -9 21 -7 22
-8 5 -9 -11 -1 -28 8 -38 19 -18 21 -12 26 13 10z m403 -3 c6 6 9 -4 6 -23 0
-4 5 -11 13 -15 7 -5 8 -9 2 -9 -6 0 -20 11 -32 25 -24 28 -29 44 -9 26 8 -6
17 -8 20 -4z m47 3 c0 -5 -7 -10 -16 -10 -8 0 -12 5 -9 10 3 6 10 10 16 10 5
0 9 -4 9 -10z m-815 -29 c-5 -17 -9 -18 -20 -8 -12 10 -11 14 2 24 21 16 27
10 18 -16z m2645 7 c0 -18 -2 -20 -9 -8 -6 8 -7 18 -5 22 9 14 14 9 14 -14z
m-7390 2 c0 -5 -5 -10 -11 -10 -5 0 -7 5 -4 10 3 6 8 10 11 10 2 0 4 -4 4 -10z
m2220 -6 c0 -8 -4 -12 -10 -9 -5 3 -10 -3 -10 -15 0 -13 -9 -24 -26 -30 -34
-13 -34 -13 -34 15 0 16 6 25 16 25 8 0 22 7 30 15 20 19 34 19 34 -1z m3395
6 c3 -5 1 -10 -4 -10 -6 0 -11 5 -11 10 0 6 2 10 4 10 3 0 8 -4 11 -10z
m-5862 -14 c3 -8 3 -17 0 -20 -9 -9 -34 15 -27 25 8 13 21 11 27 -5z m2240
-16 c-3 -11 -14 -20 -24 -20 -24 0 -24 9 -1 26 24 19 31 17 25 -6z m-2293 -8
c0 -10 -6 -19 -14 -19 -11 0 -14 12 -7 35 4 11 21 -2 21 -16z m5125 5 c11 -11
10 -15 -4 -24 -18 -11 -41 -7 -41 8 0 6 5 7 10 4 6 -3 10 1 10 9 0 19 7 20 25
3z m2705 9 c0 -3 -4 -8 -10 -11 -5 -3 -10 -1 -10 4 0 6 5 11 10 11 6 0 10 -2
10 -4z m-5121 -25 c8 -14 7 -20 -2 -24 -8 -3 -14 4 -15 19 -2 29 4 31 17 5z
m-299 5 c0 -3 -4 -8 -10 -11 -5 -3 -10 -1 -10 4 0 6 5 11 10 11 6 0 10 -2 10
-4z m-2090 -10 c0 -3 -4 -8 -10 -11 -5 -3 -10 -1 -10 4 0 6 5 11 10 11 6 0 10
-2 10 -4z m1867 -38 c-6 -4 -23 -8 -37 -8 l-25 0 25 24 c22 22 26 22 37 8 10
-13 10 -17 0 -24z m489 23 c1 -6 0 -7 -2 -2 -4 7 -16 4 -32 -5 -19 -12 -22
-12 -10 -2 10 8 15 18 12 21 -3 3 2 4 12 3 10 -2 19 -8 20 -15z m2548 11 c3
-5 -1 -9 -9 -9 -8 0 -15 4 -15 9 0 4 4 8 9 8 6 0 12 -4 15 -8z m221 -2 c-3 -5
-10 -10 -16 -10 -5 0 -9 5 -9 10 0 6 7 10 16 10 8 0 12 -4 9 -10z m2629 -5
c-4 -8 -8 -15 -10 -15 -2 0 -4 7 -4 15 0 8 4 15 10 15 5 0 7 -7 4 -15z m-8941
-20 c-3 -9 -8 -14 -10 -11 -3 3 -2 9 2 15 9 16 15 13 8 -4z m99 -23 c-3 -26 0
-32 15 -32 15 0 16 2 3 10 -13 8 -12 10 4 10 15 0 17 -6 14 -29 -2 -17 -1 -28
4 -25 15 10 8 -9 -9 -23 -11 -8 -12 -11 -3 -7 13 7 13 5 1 -9 -7 -9 -22 -17
-32 -17 -25 0 -24 30 1 37 11 3 20 10 20 15 0 5 -9 6 -21 3 -15 -5 -22 -2 -26
14 -3 12 -10 21 -15 21 -5 0 -7 4 -3 9 3 5 1 12 -5 16 -16 10 -12 21 13 33 33
16 42 9 39 -26z m116 -1 c-4 -21 -58 -23 -58 -3 0 8 8 21 17 28 21 15 46 0 41
-25z m357 29 c-3 -5 -11 -10 -16 -10 -6 0 -7 5 -4 10 3 6 11 10 16 10 6 0 7
-4 4 -10z m5329 -31 c-3 -5 3 -10 13 -10 17 -1 17 -2 0 -6 -22 -6 -47 24 -39
45 4 12 8 12 18 -3 7 -10 11 -22 8 -26z m-5154 0 c0 -6 -4 -7 -10 -4 -5 3 -10
11 -10 16 0 6 5 7 10 4 6 -3 10 -11 10 -16z m2246 -44 c-13 -20 -56 -34 -56
-18 0 13 14 30 30 36 9 3 4 6 -12 6 -34 1 -37 18 -5 30 17 7 26 4 39 -12 14
-19 15 -25 4 -42z m-2601 28 c3 -10 1 -19 -4 -21 -6 -2 -9 -9 -5 -15 3 -7 -2
-3 -10 7 -9 11 -16 26 -16 33 0 19 27 16 35 -4z m5602 3 c-3 -8 4 -18 18 -24
13 -6 29 -20 34 -31 10 -18 8 -20 -16 -18 -43 3 -88 87 -47 87 10 0 14 -6 11
-14z m-4391 -23 c-10 -10 -19 5 -10 18 6 11 8 11 12 0 2 -7 1 -15 -2 -18z
m-482 2 c-5 -11 -2 -14 12 -9 16 6 17 5 6 -7 -10 -11 -16 -10 -34 9 l-22 22
21 0 c16 0 21 -4 17 -15z m5504 0 c9 -9 -1 -13 -53 -21 -46 -6 -49 -6 -36 9 7
9 17 14 22 11 5 -3 9 0 9 6 0 10 47 7 58 -5z m-5725 -15 c-3 -11 -7 -20 -9
-20 -2 0 -4 9 -4 20 0 11 4 20 9 20 5 0 7 -9 4 -20z m1568 2 c-5 -10 -17 -24
-25 -32 -14 -10 -16 -9 -16 7 0 22 18 43 37 43 10 0 11 -5 4 -18z m3639 3 c0
-8 -4 -15 -10 -15 -5 0 -10 7 -10 15 0 8 5 15 10 15 6 0 10 -7 10 -15z m-3415
-15 c0 -8 -9 -16 -20 -18 -11 -3 -46 -28 -77 -58 -31 -30 -62 -54 -70 -53 -10
0 -10 2 0 6 6 2 12 12 12 21 0 27 66 79 93 74 4 -1 7 7 7 17 0 11 6 22 13 24
21 9 42 2 42 -13z m3198 13 c-7 -2 -19 -2 -25 0 -7 3 -2 5 12 5 14 0 19 -2 13
-5z m-5893 -21 c0 -12 -3 -12 -15 -2 -8 7 -15 13 -15 15 0 1 7 2 15 2 8 0 15
-7 15 -15z m1069 -22 c0 -10 -2 -11 -6 -2 -2 6 -9 10 -13 7 -5 -3 -7 -12 -3
-20 3 -8 0 -15 -6 -15 -6 0 -11 5 -11 11 0 5 -5 7 -12 3 -13 -8 -3 10 21 38
16 19 31 8 30 -22z m2106 24 c-9 -9 -18 -14 -21 -11 -9 9 6 27 22 27 13 0 13
-2 -1 -16z m3268 1 c-3 -9 -8 -14 -10 -11 -3 3 -2 9 2 15 9 16 15 13 8 -4z
m-492 -10 c1 -17 -18 -17 -25 0 -4 11 -1 15 10 13 8 -2 15 -7 15 -13z m439
-11 c0 -22 -2 -25 -15 -14 -8 7 -15 9 -15 4 0 -5 -4 -2 -9 6 -12 18 -5 30 20
30 14 0 19 -7 19 -26z m21 3 c-10 -9 -11 -8 -5 6 3 10 9 15 12 12 3 -3 0 -11
-7 -18z m113 -9 c-3 -5 -12 -4 -20 3 -7 6 -11 15 -8 21 3 5 12 4 20 -3 7 -6
11 -15 8 -21z m2776 16 c0 -2 -7 -4 -15 -4 -8 0 -15 4 -15 10 0 5 7 7 15 4 8
-4 15 -8 15 -10z m-9760 -5 c0 -5 -5 -7 -12 -3 -7 4 -8 3 -4 -5 4 -6 0 -14 -8
-17 -9 -3 -16 -13 -16 -21 0 -8 -4 -12 -9 -8 -17 10 9 65 30 65 10 0 19 -5 19
-11z m194 -33 c-3 -8 -14 -13 -26 -11 -16 3 -18 1 -8 -10 18 -22 -17 -34 -77
-26 -11 1 -10 31 1 50 3 5 20 8 37 7 21 -2 33 4 40 16 9 16 12 17 24 4 8 -8
12 -21 9 -30z m3171 14 c-10 -11 -26 -20 -37 -20 -21 0 -25 29 -3 31 28 3 33
4 41 12 17 16 16 -4 -1 -23z m3199 15 c-6 -16 -24 -21 -24 -7 0 11 11 22 21
22 5 0 6 -7 3 -15z m-5668 -9 c14 -11 16 -18 8 -26 -8 -8 -15 -4 -28 14 -18
29 -10 34 20 12z m5874 3 c12 -8 10 -9 -9 -4 -15 5 -21 3 -17 -3 4 -6 -2 -8
-15 -5 -16 4 -17 8 -7 14 17 11 30 11 48 -2z m-6742 -21 c8 -8 9 -15 0 -25 -9
-11 -13 -10 -24 4 -7 10 -14 21 -14 26 0 11 25 8 38 -5z m242 -23 c0 -14 7
-26 19 -30 11 -3 25 -12 31 -20 10 -13 8 -15 -14 -15 -15 0 -25 4 -21 9 3 5
-6 18 -20 29 -24 19 -32 42 -19 55 12 11 24 -3 24 -28z m2597 29 c-3 -3 -12
-4 -19 -1 -8 3 -5 6 6 6 11 1 17 -2 13 -5z m3597 0 c18 -7 10 -34 -10 -34 -8
0 -14 9 -14 20 0 22 1 23 24 14z m-6047 -10 c-3 -3 -12 -4 -19 -1 -8 3 -5 6 6
6 11 1 17 -2 13 -5z m4003 -20 c0 -16 -9 -18 -30 -4 -13 9 -13 11 0 19 17 12
30 5 30 -15z m-4019 -17 c-10 -9 -11 -8 -5 6 3 10 9 15 12 12 3 -3 0 -11 -7
-18z m549 19 c0 -2 -7 -7 -16 -10 -8 -3 -12 -2 -9 4 6 10 25 14 25 6z m-890
-16 c0 -5 -4 -10 -10 -10 -5 0 -10 5 -10 10 0 6 5 10 10 10 6 0 10 -4 10 -10z
m2718 -27 c-6 -7 -21 -13 -34 -13 -29 0 -22 28 10 40 25 9 40 -8 24 -27z
m1242 27 c0 -5 -2 -10 -4 -10 -3 0 -8 5 -11 10 -3 6 -1 10 4 10 6 0 11 -4 11
-10z m210 0 c0 -5 -5 -10 -11 -10 -5 0 -7 5 -4 10 3 6 8 10 11 10 2 0 4 -4 4
-10z m250 6 c0 -3 -4 -8 -10 -11 -5 -3 -10 -1 -10 4 0 6 5 11 10 11 6 0 10 -2
10 -4z m127 -10 c0 -7 -9 -18 -19 -25 -15 -9 -18 -8 -18 10 0 11 5 17 10 14 6
-3 10 -1 10 4 0 6 4 11 8 11 5 0 9 -6 9 -14z m-4597 -16 c0 -17 -30 -18 -39
-1 -9 16 -7 17 14 13 14 -2 25 -8 25 -12z m1120 -20 c0 -19 -25 -34 -41 -24
-13 7 -11 22 3 38 16 17 38 9 38 -14z m2920 26 c0 -3 -4 -8 -10 -11 -5 -3 -10
-1 -10 4 0 6 5 11 10 11 6 0 10 -2 10 -4z m-3647 -48 c-10 -19 -33 -6 -33 17
0 24 1 24 18 8 11 -10 17 -21 15 -25z m894 27 c0 -18 -19 -15 -25 3 -2 7 3 12
11 12 7 0 14 -7 14 -15z m2053 5 c0 -5 -8 -10 -17 -10 -15 0 -16 2 -3 10 19
12 20 12 20 0z m3800 -11 c0 -5 -4 -9 -10 -9 -5 0 -10 6 -10 13 0 9 -3 8 -9
-2 -5 -8 -14 -10 -22 -6 -9 6 -8 10 7 15 21 8 44 2 44 -11z m-6643 5 c33 -9
26 -44 -9 -44 -30 0 -43 13 -34 35 6 17 11 17 43 9z m1248 -40 c-18 -14 -20
-13 -24 3 -2 9 2 19 8 21 6 2 8 9 5 15 -4 7 2 4 12 -6 19 -18 19 -19 -1 -33z
m2952 24 c-3 -8 -6 -5 -6 6 -1 11 2 17 5 13 3 -3 4 -12 1 -19z m-5182 -19 c5
-15 10 -17 20 -9 8 7 15 7 19 1 4 -5 0 -13 -8 -18 -8 -4 -14 -17 -13 -28 2
-25 -26 -27 -31 -2 -2 9 2 17 9 17 8 0 4 7 -8 15 -13 9 -20 22 -17 30 9 21 22
19 29 -6z m1695 11 c0 -5 -2 -10 -4 -10 -3 0 -8 5 -11 10 -3 6 -1 10 4 10 6 0
11 -4 11 -10z m-1236 -15 c-7 -18 -18 -19 -32 -2 -8 10 -5 13 13 15 18 1 23
-2 19 -13z m2994 3 c-6 -18 -28 -21 -28 -4 0 9 7 16 16 16 9 0 14 -5 12 -12z
m1492 8 c0 -3 -4 -8 -10 -11 -5 -3 -10 -1 -10 4 0 6 5 11 10 11 6 0 10 -2 10
-4z m-4990 -22 c0 -8 -4 -12 -10 -9 -5 3 -10 10 -10 16 0 5 5 9 10 9 6 0 10
-7 10 -16z m307 -34 c8 0 12 -4 8 -10 -3 -5 -13 -7 -23 -4 -12 4 -13 3 -5 -3
10 -7 10 -15 0 -36 -13 -28 -22 -33 -31 -18 -3 5 1 11 9 15 8 3 15 11 15 17 0
8 -4 8 -15 -1 -12 -10 -15 -10 -15 3 0 9 -8 15 -19 14 -15 -1 -17 -4 -9 -14 8
-10 7 -12 -5 -8 -8 4 -18 2 -22 -4 -3 -7 2 -11 14 -11 16 0 19 -5 15 -27 -7
-36 -7 -36 -37 -13 -31 25 -37 25 -37 3 0 -14 2 -15 9 -5 6 10 10 9 14 -7 3
-14 1 -19 -6 -14 -9 5 -9 3 0 -8 9 -11 7 -19 -7 -36 l-18 -22 -38 19 c-22 11
-32 19 -23 20 31 0 107 138 92 164 -4 6 1 5 10 -2 9 -8 21 -11 27 -7 5 3 10 2
10 -3 0 -16 50 12 51 28 0 9 4 7 11 -7 6 -13 17 -23 25 -23z m169 23 c16 -22
17 -33 3 -33 -5 0 -7 5 -4 10 3 6 4 10 1 10 -2 0 -12 3 -22 7 -13 5 -15 3 -9
-7 5 -9 4 -11 -3 -6 -18 11 -14 36 4 36 9 0 23 -8 30 -17z m398 8 c-8 -8 -43
-8 -38 0 2 4 13 7 24 6 10 -1 17 -3 14 -6z m412 -35 c-10 -42 -56 -30 -56 15
0 14 43 29 54 19 5 -5 6 -20 2 -34z m3578 9 l6 -30 -14 25 c-8 14 -12 28 -9
33 7 11 9 7 17 -28z m1306 10 c0 -8 -4 -15 -10 -15 -5 0 -7 7 -4 15 4 8 8 15
10 15 2 0 4 -7 4 -15z m-5625 -5 c3 -5 1 -10 -4 -10 -6 0 -11 5 -11 10 0 6 2
10 4 10 3 0 8 -4 11 -10z m4695 0 c0 -5 -4 -10 -10 -10 -5 0 -10 5 -10 10 0 6
5 10 10 10 6 0 10 -4 10 -10z m-5353 -7 c-4 -3 -2 -12 4 -19 16 -19 2 -69 -14
-55 -19 15 -89 -10 -72 -26 7 -7 32 -11 56 -10 35 2 44 -1 45 -16 1 -12 0 -13
-3 -2 -3 12 -9 13 -24 4 -11 -5 -16 -15 -13 -21 5 -7 2 -8 -5 -4 -7 5 -10 14
-7 22 4 11 2 11 -14 2 -10 -7 -18 -14 -18 -17 2 -23 -4 -41 -13 -41 -6 0 -8 9
-4 21 4 12 2 24 -4 28 -6 4 -13 28 -15 54 -3 29 0 45 6 41 5 -3 18 2 29 12 10
9 22 14 25 11 4 -3 13 0 21 8 8 8 17 15 20 15 4 0 3 -3 0 -7z m113 -3 c0 -5
-7 -7 -15 -4 -8 4 -15 8 -15 10 0 2 7 4 15 4 8 0 15 -4 15 -10z m3420 1 c0 -6
-4 -13 -10 -16 -5 -3 -10 1 -10 9 0 9 5 16 10 16 6 0 10 -4 10 -9z m1149 -15
c9 -11 9 -16 0 -22 -7 -4 -9 -3 -5 4 9 15 -13 27 -27 13 -16 -16 -37 -14 -31
4 8 19 48 20 63 1z m3471 0 c0 -14 -29 -31 -38 -22 -2 3 -2 12 1 21 8 19 37
20 37 1z m-8074 -45 c-10 -15 -46 18 -39 36 5 12 10 11 26 -5 11 -11 16 -25
13 -31z m684 40 c0 -17 -18 -21 -24 -6 -3 9 0 15 9 15 8 0 15 -4 15 -9z m-76
-16 c4 -10 -1 -15 -14 -15 -20 0 -26 11 -13 23 10 11 20 8 27 -8z m-92 -23
c-27 -4 -37 2 -27 17 4 8 13 7 28 -1 l22 -13 -23 -3z m716 16 c-7 -19 -45 -21
-51 -4 -5 12 1 16 24 16 20 0 29 -4 27 -12z m-1088 -12 c0 -8 3 -22 6 -31 5
-11 0 -18 -15 -22 -11 -3 -18 -9 -15 -14 3 -5 0 -9 -6 -9 -6 0 -10 8 -8 18 1
9 -1 23 -5 29 -5 9 -3 11 6 7 8 -3 18 -1 22 5 3 6 1 11 -5 11 -6 0 -8 5 -5 10
9 15 25 12 25 -4z m3330 4 c0 -13 -28 -25 -38 -16 -3 4 0 11 8 16 20 13 30 12
30 0z m-537 -15 c7 -16 -8 -29 -23 -20 -10 6 -2 35 10 35 4 0 10 -7 13 -15z
m5067 11 c0 -3 -4 -8 -10 -11 -5 -3 -10 -1 -10 4 0 6 5 11 10 11 6 0 10 -2 10
-4z m-7933 -21 c0 -8 -4 -15 -9 -15 -10 0 -11 14 -1 23 9 10 10 9 10 -8z m989
3 c8 -12 -22 -38 -44 -38 -11 0 -10 3 2 16 9 8 16 20 16 25 0 13 17 11 26 -3z
m-491 -8 c3 -5 1 -10 -4 -10 -6 0 -11 5 -11 10 0 6 2 10 4 10 3 0 8 -4 11 -10z
m2855 0 c0 -5 -5 -10 -11 -10 -5 0 -7 5 -4 10 3 6 8 10 11 10 2 0 4 -4 4 -10z
m2395 -28 c-10 -10 -16 -12 -13 -7 3 6 8 19 13 30 5 14 9 16 12 7 3 -8 -3 -21
-12 -30z m-6175 3 c0 -14 -4 -25 -10 -25 -11 0 -14 33 -3 43 11 11 13 8 13
-18z m37 3 c-3 -8 -6 -5 -6 6 -1 11 2 17 5 13 3 -3 4 -12 1 -19z m375 -20 c6
-13 5 -18 -5 -18 -9 0 -14 12 -14 33 -1 17 2 25 4 17 3 -8 10 -23 15 -32z
m4454 16 c-4 -9 -9 -15 -11 -12 -3 3 -3 13 1 22 4 9 9 15 11 12 3 -3 3 -13 -1
-22z m768 0 c26 -10 19 -41 -9 -47 -30 -5 -64 31 -42 45 15 9 30 10 51 2z
m-4724 -14 c13 0 21 -63 9 -71 -17 -10 -48 1 -51 20 -7 31 4 62 19 57 8 -3 18
-6 23 -6z m-795 -10 c-3 -5 -1 -10 5 -10 6 0 8 -5 4 -11 -4 -8 -9 -7 -15 2 -7
12 -3 29 7 29 3 0 2 -4 -1 -10z m229 -27 c-12 -9 -13 -16 -4 -32 9 -18 8 -21
-9 -21 -11 0 -21 -8 -23 -17 -3 -15 -4 -15 -21 1 -9 10 -14 22 -11 28 4 7 2 8
-4 4 -7 -4 -12 -2 -12 3 0 18 5 26 13 24 4 -2 7 2 7 7 0 6 7 10 16 10 8 0 23
7 31 16 13 13 17 13 24 2 6 -8 3 -17 -7 -25z m2016 17 c0 -14 -15 -19 -29 -10
-17 10 -5 31 14 23 8 -3 15 -9 15 -13z m-2512 -7 c0 -10 0 -22 2 -28 5 -21 0
-36 -11 -29 -6 3 -9 15 -6 25 3 10 1 22 -5 25 -6 4 -5 10 3 15 18 11 18 12 17
-8z m1342 8 c0 -5 3 -16 6 -25 5 -12 -1 -16 -24 -16 -38 0 -51 18 -27 37 22
15 45 17 45 4z m3670 -8 c0 5 5 5 10 2 8 -5 7 -12 -2 -23 -10 -12 -10 -14 -1
-8 9 5 11 2 7 -9 -4 -9 -9 -14 -11 -11 -3 3 -15 1 -27 -4 -20 -7 -22 -6 -18
16 2 13 8 24 13 24 5 0 9 8 9 18 0 14 2 15 10 2 5 -8 10 -11 10 -7z m-4836 -2
c3 -5 -1 -11 -9 -15 -9 -3 -15 0 -15 9 0 16 16 20 24 6z m-234 -32 c0 -5 -10
-9 -21 -9 -18 0 -19 2 -9 15 12 15 30 12 30 -6z m259 -2 c14 -17 5 -26 -19
-20 -11 3 -16 11 -13 19 7 18 17 18 32 1z m71 -7 c0 -5 -4 -10 -10 -10 -5 0
-10 5 -10 10 0 6 5 10 10 10 6 0 10 -4 10 -10z m640 6 c0 -3 -4 -8 -10 -11 -5
-3 -10 -1 -10 4 0 6 5 11 10 11 6 0 10 -2 10 -4z m2380 0 c0 -2 -7 -7 -16 -10
-8 -3 -12 -2 -9 4 6 10 25 14 25 6z m3193 -16 c-3 -12 -6 -19 -7 -18 -1 2 -8
11 -15 21 -12 15 -11 17 7 17 15 0 19 -5 15 -20z m-5909 -2 c-6 -10 -4 -10 8
0 13 10 17 10 22 -3 3 -9 2 -13 -4 -10 -6 3 -10 2 -10 -3 0 -6 -7 -13 -16 -16
-8 -3 -13 -2 -9 3 3 5 0 11 -7 13 -13 5 -2 28 13 28 6 0 7 -6 3 -12z m246 2
c0 -5 -4 -10 -10 -10 -5 0 -10 5 -10 10 0 6 5 10 10 10 6 0 10 -4 10 -10z
m2160 -5 c10 -12 10 -15 -2 -15 -8 0 -15 7 -15 15 0 8 1 15 2 15 2 0 8 -7 15
-15z m-2954 -20 c-16 -17 -36 -20 -36 -6 0 10 17 19 38 20 10 1 10 -3 -2 -14z
m94 5 c0 -5 -2 -10 -4 -10 -3 0 -8 5 -11 10 -3 6 -1 10 4 10 6 0 11 -4 11 -10z
m2654 3 c-5 -5 -12 -12 -16 -18 -4 -6 -8 -2 -8 8 0 9 7 17 17 17 9 0 12 -3 7
-7z m-2511 -16 c4 3 7 -1 7 -11 0 -11 4 -15 13 -10 8 5 8 3 -2 -9 -7 -9 -18
-14 -25 -10 -6 4 -15 8 -21 8 -5 0 -10 6 -9 13 3 33 4 35 17 23 8 -6 17 -8 20
-4z m4117 3 c0 -5 -2 -10 -4 -10 -3 0 -8 5 -11 10 -3 6 -1 10 4 10 6 0 11 -4
11 -10z m-4206 -21 c-7 -11 -34 -12 -34 -1 0 14 11 21 26 15 8 -3 11 -9 8 -14z
m4859 -4 c13 -13 16 -12 22 2 5 15 8 14 19 -7 7 -14 19 -24 27 -22 12 3 12 1
1 -10 -11 -11 -15 -10 -23 4 -9 17 -37 15 -50 -4 -9 -14 -43 18 -36 36 8 20
21 20 40 1z m-5133 -16 c0 -12 -5 -16 -15 -13 -8 4 -15 12 -15 18 0 7 7 13 15
13 8 0 15 -8 15 -18z m68 13 c19 -12 3 -42 -22 -42 -14 0 -17 3 -8 8 7 5 10
16 6 25 -7 18 3 22 24 9z m92 -6 c0 -8 3 -16 8 -19 4 -2 1 -2 -7 0 -8 2 -18
-1 -21 -8 -5 -8 -13 -7 -29 2 -22 15 -28 29 -11 29 6 0 10 -4 10 -10 0 -5 5
-10 10 -10 6 0 10 7 10 15 0 8 7 15 15 15 8 0 15 -6 15 -14z m1462 -28 c-15
-15 -26 -4 -18 18 5 13 9 15 18 6 9 -9 9 -15 0 -24z m-1099 16 c21 -8 9 -44
-14 -44 -20 0 -23 8 -13 34 7 18 7 18 27 10z m858 -9 c0 -5 -9 -11 -21 -13
-15 -3 -18 1 -14 13 7 17 35 17 35 0z m-1591 -14 c0 -12 -20 -25 -27 -18 -7 7
6 27 18 27 5 0 9 -4 9 -9z m530 -5 c0 -3 -4 -8 -10 -11 -5 -3 -10 -1 -10 4 0
6 5 11 10 11 6 0 10 -2 10 -4z m374 -18 c-3 -4 -9 -8 -15 -8 -5 0 -9 4 -9 8 0
5 7 9 15 9 8 0 12 -4 9 -9z m-700 -24 c3 -9 -1 -14 -13 -14 -10 0 -21 8 -24
19 -3 14 0 17 14 14 9 -3 20 -11 23 -19z m1494 14 c-2 -6 -11 -12 -20 -14 -11
-1 -15 3 -11 12 6 17 36 19 31 2z m-1303 -8 c9 -14 -7 -35 -27 -36 -21 -2 -22
1 -8 27 12 21 25 25 35 9z m1082 -12 c-3 -8 -6 -5 -6 6 -1 11 2 17 5 13 3 -3
4 -12 1 -19z m98 -18 c-6 -9 -9 -9 -16 1 -10 17 0 34 13 21 6 -6 7 -16 3 -22z
m-605 5 c0 -8 -4 -15 -10 -15 -5 0 -10 7 -10 15 0 8 5 15 10 15 6 0 10 -7 10
-15z m175 5 c3 -5 1 -10 -4 -10 -6 0 -11 5 -11 10 0 6 2 10 4 10 3 0 8 -4 11
-10z m-565 -34 c0 -3 -4 -8 -10 -11 -5 -3 -10 -1 -10 4 0 6 5 11 10 11 6 0 10
-2 10 -4z m750 -6 c0 -5 -5 -10 -11 -10 -5 0 -7 5 -4 10 3 6 8 10 11 10 2 0 4
-4 4 -10z m-1624 -23 c1 -9 -1 -15 -6 -12 -5 3 -10 0 -12 -6 -3 -8 -9 -6 -20
4 -8 9 -19 13 -24 9 -5 -4 -2 1 5 11 17 22 53 18 57 -6z m501 8 c0 -8 -6 -15
-14 -15 -17 0 -17 17 0 23 6 3 12 6 13 6 0 1 1 -6 1 -14z m543 11 c0 -3 -4 -8
-10 -11 -5 -3 -10 -1 -10 4 0 6 5 11 10 11 6 0 10 -2 10 -4z m291 -29 c-16
-16 -26 0 -10 19 9 11 15 12 17 4 2 -6 -1 -17 -7 -23z m6129 17 c0 -2 -7 -4
-15 -4 -8 0 -15 4 -15 10 0 5 7 7 15 4 8 -4 15 -8 15 -10z m5470 -15 c0 -20
-15 -26 -25 -9 -9 15 3 43 15 35 5 -3 10 -15 10 -26z m-12625 1 c-3 -5 -12
-10 -18 -10 -7 0 -6 4 3 10 19 12 23 12 15 0z m620 -11 c-6 -33 -15 -36 -15
-6 0 15 4 27 9 27 6 0 8 -10 6 -21z m-1010 -7 c-3 -3 -11 0 -18 7 -9 10 -8 11
6 5 10 -3 15 -9 12 -12z m45 -13 c0 -8 -31 -13 -46 -6 -4 1 -11 -8 -15 -21 -5
-13 -13 -21 -18 -17 -6 3 -9 -4 -8 -15 2 -25 14 -26 22 -1 4 15 45 38 45 26 0
-2 3 -10 6 -19 4 -12 0 -16 -16 -16 -12 0 -28 -7 -36 -15 -13 -13 -13 -15 -1
-15 10 0 13 -8 9 -25 -2 -14 -11 -25 -18 -25 -8 0 -14 -4 -14 -10 0 -5 -9 -10
-20 -10 -11 0 -20 7 -20 16 0 8 4 13 9 10 5 -3 15 1 22 10 11 13 7 20 -25 49
-39 34 -41 55 -5 55 11 0 19 7 19 17 0 13 3 14 12 5 15 -15 32 -16 23 -2 -3 6
3 10 14 10 11 0 22 4 26 10 7 11 35 2 35 -11z m5578 -17 c3 -17 8 -21 21 -17
11 3 28 -3 42 -16 13 -11 18 -18 12 -14 -7 3 -13 1 -13 -4 0 -16 -21 -13 -41
5 -14 12 -22 13 -38 4 -22 -11 -61 1 -61 20 0 48 72 68 78 22z m-2644 -5 c18
-18 8 -37 -19 -37 -28 0 -38 12 -29 34 7 19 31 21 48 3z m-2744 -25 c0 -4 -10
-9 -22 -9 -18 -2 -20 0 -8 7 18 12 30 13 30 2z m590 -18 c0 -14 -12 -18 -40
-14 -20 3 -32 23 -19 31 17 10 59 -2 59 -17z m-185 6 c-3 -5 -10 -10 -16 -10
-5 0 -9 5 -9 10 0 6 7 10 16 10 8 0 12 -4 9 -10z m50 -19 c-9 -16 -25 -3 -18
15 4 10 9 12 15 6 6 -6 7 -15 3 -21z m45 3 c0 -8 -4 -12 -10 -9 -5 3 -10 10
-10 16 0 5 5 9 10 9 6 0 10 -7 10 -16z m3930 -4 c0 -5 -7 -10 -16 -10 -8 0
-12 5 -9 10 3 6 10 10 16 10 5 0 9 -4 9 -10z m-4246 -33 c39 -29 -19 -61 -65
-36 -20 10 -20 11 2 30 26 22 39 24 63 6z m-610 -16 c3 -4 -6 -6 -19 -3 -14 2
-25 6 -25 8 0 8 39 4 44 -5z m330 0 c3 -5 -1 -14 -8 -20 -12 -10 -13 -8 -9 8
6 23 9 25 17 12z m-66 -13 c-3 -7 -13 -14 -24 -15 -10 -2 -13 0 -6 3 6 3 10
10 6 15 -3 5 2 9 11 9 9 0 15 -6 13 -12z m462 -8 c0 -5 -11 -10 -25 -10 -14 0
-25 5 -25 10 0 6 11 10 25 10 14 0 25 -4 25 -10z m-268 -58 c-12 -38 -22 -52
-36 -52 -14 0 -17 6 -14 25 4 20 3 23 -8 14 -11 -9 -14 -9 -14 0 0 6 11 16 25
21 14 5 25 16 25 24 0 11 27 27 37 21 1 -1 -5 -24 -15 -53z m78 43 c19 6 28
-10 20 -40 -2 -5 -2 -18 -2 -27 0 -10 -3 -18 -7 -18 -12 0 -10 33 3 49 8 11 8
13 -1 7 -22 -12 -53 -15 -53 -5 0 6 -5 7 -12 3 -8 -5 -9 -2 -5 10 4 10 7 22 7
28 0 6 6 6 15 -2 8 -6 23 -9 35 -5z m94 -8 c4 4 4 -1 0 -12 -15 -39 -44 -46
-44 -12 0 30 10 40 25 27 7 -5 15 -7 19 -3z m656 -2 c0 -8 -4 -15 -10 -15 -5
0 -7 7 -4 15 4 8 8 15 10 15 2 0 4 -7 4 -15z m-450 1 c0 -2 2 -11 5 -18 4 -9
-4 -14 -25 -16 -31 -2 -44 21 -17 31 16 7 37 8 37 3z m3870 -31 c-9 -11 -16
-13 -23 -6 -7 7 -6 15 3 26 9 11 16 13 23 6 7 -7 6 -15 -3 -26z m-3624 -1 c-3
-9 -6 -20 -6 -26 0 -5 -7 -2 -16 6 -17 18 -11 36 13 36 10 0 13 -6 9 -16z
m-786 -4 c0 -5 -2 -10 -4 -10 -3 0 -8 5 -11 10 -3 6 -1 10 4 10 6 0 11 -4 11
-10z m2450 -52 c0 -4 -6 -5 -14 -2 -8 3 -12 12 -9 21 5 12 7 12 14 1 5 -7 9
-16 9 -20z m-3084 13 c-4 -5 0 -12 6 -14 8 -3 6 -6 -4 -6 -10 -1 -18 6 -18 14
0 8 5 15 11 15 5 0 8 -4 5 -9z m53 -12 c-14 -8 -29 -3 -29 11 0 4 9 6 21 3 15
-4 17 -8 8 -14z m2928 5 c-3 -3 -12 -4 -19 -1 -8 3 -5 6 6 6 11 1 17 -2 13 -5z
m-1507 -8 c0 -2 3 -11 6 -20 5 -12 0 -16 -20 -16 -28 0 -29 1 -20 24 5 14 34
24 34 12z m-1521 -32 c2 -2 -1 -10 -8 -18 -12 -14 -60 -9 -61 7 0 4 0 11 0 16
0 8 60 4 69 -5z m43 -14 c6 0 8 -3 5 -6 -3 -4 -2 -15 4 -25 8 -15 6 -17 -8
-12 -32 11 -35 15 -22 24 11 7 10 9 -4 9 -15 0 -16 3 -5 23 10 19 13 20 16 5
2 -10 8 -18 14 -18z m4613 20 c3 -5 -1 -10 -9 -10 -8 0 -18 5 -21 10 -3 6 1
10 9 10 8 0 18 -4 21 -10z m-4314 -17 c7 7 6 3 -4 -9 -9 -11 -17 -26 -17 -32
0 -17 -36 -15 -54 4 -24 23 -19 34 15 34 21 0 28 4 24 13 -4 6 0 4 8 -5 11
-14 17 -15 28 -5z m3169 -27 c0 -5 -7 -3 -15 4 -8 7 -12 17 -9 22 7 10 24 -9
24 -26z m-2206 7 c4 -5 12 -9 17 -9 5 -1 12 -2 15 -3 11 -2 -18 -31 -30 -31
-7 0 -21 7 -32 15 -16 13 -17 16 -4 25 18 12 24 12 34 3z m1961 -13 c3 -5 1
-10 -4 -10 -6 0 -11 5 -11 10 0 6 2 10 4 10 3 0 8 -4 11 -10z m-2417 -24 c5
-22 -7 -35 -36 -41 -31 -6 -35 9 -11 39 23 29 42 30 47 2z m-928 -2 c0 -10
-66 -62 -72 -57 -12 7 11 43 27 43 8 0 15 7 15 15 0 9 6 12 15 9 8 -4 15 -8
15 -10z m-135 -34 c-3 -5 -12 -7 -20 -3 -21 7 -19 13 6 13 11 0 18 -4 14 -10z
m43 -31 c-3 -8 -7 -3 -11 10 -4 17 -3 21 5 13 5 -5 8 -16 6 -23z m572 27 c0
-3 -4 -8 -10 -11 -5 -3 -10 -1 -10 4 0 6 5 11 10 11 6 0 10 -2 10 -4z m-192
-38 c-6 -18 -28 -21 -28 -4 0 9 7 16 16 16 9 0 14 -5 12 -12z m-148 -10 c0 -7
-11 -13 -24 -13 -15 0 -22 5 -19 13 3 6 14 12 24 12 10 0 19 -6 19 -12z m3458
-10 c18 -18 15 -38 -6 -38 -21 0 -42 18 -42 37 0 16 32 17 48 1z m-3775 -20
c4 -10 8 -10 15 0 7 11 10 11 15 -2 9 -23 -41 -25 -55 -3 -6 9 -8 9 -8 0 0 -7
-4 -13 -10 -13 -5 0 -10 7 -10 15 0 18 46 21 53 3z m-178 -18 c-3 -5 -3 -16 2
-22 11 -19 13 -39 2 -32 -5 3 -6 11 -3 17 5 9 4 9 -6 0 -13 -12 -40 -7 -40 9
0 5 4 7 9 3 6 -3 15 4 21 15 6 11 13 20 16 20 3 0 2 -4 -1 -10z m308 4 c7 -7
-2 -34 -12 -34 -4 0 -7 9 -8 20 -2 19 8 26 20 14z m597 -14 c0 -5 -7 -10 -15
-10 -8 0 -15 5 -15 10 0 6 7 10 15 10 8 0 15 -4 15 -10z m-795 -32 c14 -13
-16 -29 -40 -21 -24 7 -35 22 -28 39 4 10 11 10 31 2 15 -7 31 -16 37 -20z
m375 28 c0 -3 -4 -8 -10 -11 -5 -3 -10 -1 -10 4 0 6 5 11 10 11 6 0 10 -2 10
-4z m-80 -29 c0 -16 -3 -18 -12 -9 -7 7 -20 12 -31 12 -28 0 -13 15 17 16 20
2 26 -3 26 -19z m193 -61 c4 -10 1 -13 -8 -9 -8 3 -12 9 -9 14 7 12 11 11 17
-5z m-453 -17 c0 -11 -4 -18 -9 -15 -5 3 -11 -1 -15 -9 -6 -17 -36 -21 -36 -4
0 17 25 38 58 48 1 1 2 -8 2 -20z m164 5 c3 -8 2 -12 -4 -9 -6 3 -10 10 -10
16 0 14 7 11 14 -7z m10299 -9 c1 -5 -6 -11 -15 -13 -11 -2 -18 3 -18 13 0 17
30 18 33 0z m-9979 -20 c-4 -8 -8 -15 -10 -15 -2 0 -4 7 -4 15 0 8 4 15 10 15
5 0 7 -7 4 -15z m153 0 c0 -8 -4 -12 -9 -9 -5 3 -6 10 -3 15 9 13 12 11 12 -6z
m-597 -52 c0 -8 -12 -13 -30 -13 -20 0 -30 5 -30 15 0 8 5 15 10 15 6 0 10 7
10 15 0 12 3 12 20 -2 11 -10 20 -23 20 -30z m210 27 c0 -5 -7 -7 -15 -4 -8 4
-15 8 -15 10 0 2 7 4 15 4 8 0 15 -4 15 -10z m40 0 c0 -5 -5 -10 -11 -10 -5 0
-7 5 -4 10 3 6 8 10 11 10 2 0 4 -4 4 -10z m-377 -57 c-3 -7 -9 -13 -13 -13
-14 0 -22 20 -16 36 5 12 8 13 20 2 7 -7 11 -19 9 -25z m-368 -15 c-4 -10 -14
-14 -26 -11 -10 3 -16 10 -13 15 3 5 12 7 20 4 8 -3 14 0 14 6 0 6 2 9 5 6 3
-3 3 -12 0 -20z m833 11 c-2 -6 -8 -10 -13 -10 -5 0 -11 4 -13 10 -2 6 4 11
13 11 9 0 15 -5 13 -11z m252 2 c0 -6 -4 -13 -10 -16 -5 -3 -10 1 -10 9 0 9 5
16 10 16 6 0 10 -4 10 -9z m-210 -17 c0 -8 -19 -13 -24 -6 -3 5 1 9 9 9 8 0
15 -2 15 -3z m2603 -8 c4 -9 0 -13 -11 -12 -9 2 -18 8 -20 14 -5 17 25 15 31
-2z m-3112 -30 c1 -17 1 -34 0 -38 0 -4 6 -5 14 -2 8 4 13 9 11 13 -9 14 12
34 29 27 15 -6 14 -9 -10 -32 -25 -23 -64 -27 -50 -5 3 5 -4 12 -15 16 -21 7
-24 14 -15 38 11 26 35 15 36 -17z m-218 -3 c-4 -11 -3 -14 5 -9 7 4 12 2 12
-3 0 -13 -3 -13 -24 -5 -13 5 -14 9 -5 20 15 19 20 18 12 -3z m-281 -11 c-6
-5 -18 -16 -25 -24 -11 -16 -13 -16 -27 0 -13 14 -12 15 2 10 10 -4 19 -1 22
8 3 8 13 14 23 14 13 0 14 -3 5 -8z m322 -7 c-4 -8 -8 -15 -10 -15 -2 0 -4 7
-4 15 0 8 4 15 10 15 5 0 7 -7 4 -15z m96 -1 c0 -8 -19 -13 -24 -6 -3 5 1 9 9
9 8 0 15 -2 15 -3z m190 -4 c0 -5 -5 -10 -11 -10 -5 0 -7 5 -4 10 3 6 8 10 11
10 2 0 4 -4 4 -10z m90 -10 c0 -5 -2 -10 -4 -10 -3 0 -8 5 -11 10 -3 6 -1 10
4 10 6 0 11 -4 11 -10z m500 -4 c0 -18 -10 -25 -26 -19 -21 8 -17 29 6 30 11
1 20 -4 20 -11z m-964 -23 c-10 -10 -19 5 -10 18 6 11 8 11 12 0 2 -7 1 -15
-2 -18z m7864 -3 c0 -13 -5 -18 -15 -14 -8 4 -15 12 -15 20 0 8 7 14 15 14 8
0 15 -9 15 -20z m-7010 -15 c0 -14 -24 -27 -34 -18 -3 3 -1 14 5 25 11 20 29
16 29 -7z m-616 -25 c-6 -6 -19 -8 -29 -4 -17 7 -17 8 1 21 21 15 45 0 28 -17z
m2926 5 c10 -13 9 -15 -9 -15 -12 0 -21 6 -21 15 0 8 4 15 9 15 5 0 14 -7 21
-15z m-3217 -10 c-3 -9 -8 -14 -10 -11 -3 3 -2 9 2 15 9 16 15 13 8 -4z m706
-41 c-9 -11 -15 -12 -23 -4 -8 8 -7 13 4 20 20 12 33 1 19 -16z m-991 -20 c-3
-29 -9 -30 -33 -4 -11 12 -13 20 -6 20 7 0 10 4 7 9 -4 5 3 7 14 4 13 -4 19
-13 18 -29z m-81 20 c-3 -3 -12 -4 -19 -1 -8 3 -5 6 6 6 11 1 17 -2 13 -5z
m4913 -29 c0 -8 -4 -15 -9 -15 -5 0 -11 7 -15 15 -3 9 0 15 9 15 8 0 15 -7 15
-15z m-2530 -79 c0 -26 -20 -39 -45 -30 -29 11 -12 54 21 54 19 0 24 -5 24
-24z m-2362 -23 c-5 -25 -28 -28 -28 -4 0 12 6 21 16 21 9 0 14 -7 12 -17z
m127 -94 c-10 -15 -25 -10 -19 6 4 8 10 12 15 9 5 -3 7 -10 4 -15z m-571 -65
c9 -22 8 -24 -9 -18 -8 4 -15 12 -15 20 0 19 16 18 24 -2z m-57 -36 c-3 -8 -6
-5 -6 6 -1 11 2 17 5 13 3 -3 4 -12 1 -19z m833 -18 c0 -5 -7 -7 -15 -4 -8 4
-15 8 -15 10 0 2 7 4 15 4 8 0 15 -4 15 -10z m1994 -196 c18 -7 12 -24 -10
-24 -8 0 -14 7 -14 15 0 17 2 18 24 9z m3931 -64 c-3 -5 -10 -10 -16 -10 -5 0
-9 5 -9 10 0 6 7 10 16 10 8 0 12 -4 9 -10z m-6545 -31 c0 -24 -23 -21 -28 4
-2 10 3 17 12 17 10 0 16 -9 16 -21z m80 -9 c0 -5 -9 -10 -21 -10 -11 0 -17 5
-14 10 3 6 13 10 21 10 8 0 14 -4 14 -10z m966 -35 c-3 -23 -16 -31 -26 -15
-10 17 -4 30 15 30 7 0 12 -7 11 -15z m1496 -397 c-6 -6 -7 0 -4 19 5 21 7 23
10 9 2 -10 0 -22 -6 -28z m1942 -3 c7 -20 -23 -33 -34 -14 -5 7 -6 17 -4 21 9
13 32 9 38 -7z m-1990 -71 c3 -8 2 -12 -4 -9 -6 3 -10 10 -10 16 0 14 7 11 14
-7z m78 -16 c-9 -9 -15 -9 -24 0 -9 9 -7 12 12 12 19 0 21 -3 12 -12z m-2882
-143 c0 -16 -17 -19 -44 -9 -26 10 -18 24 14 24 20 0 30 -5 30 -15z m6940
-361 c0 -8 -5 -12 -10 -9 -6 4 -8 11 -5 16 9 14 15 11 15 -7z m-2720 -54 c0
-5 -2 -10 -4 -10 -3 0 -8 5 -11 10 -3 6 -1 10 4 10 6 0 11 -4 11 -10z m-1891
-59 c-15 -5 -22 6 -14 19 6 9 10 9 16 -1 5 -8 4 -15 -2 -18z m7706 -206 c14
-9 26 -36 38 -91 10 -44 27 -108 37 -144 11 -36 24 -108 30 -160 12 -96 35
-186 51 -196 13 -8 209 98 220 118 5 10 16 18 24 18 8 0 15 5 15 10 0 6 11 10
24 10 14 0 37 5 51 10 36 14 115 79 115 95 0 19 28 45 43 39 7 -2 27 10 44 28
17 18 53 56 80 85 27 28 61 55 75 58 32 8 128 -4 333 -43 88 -17 183 -34 210
-37 28 -4 93 -16 145 -27 52 -11 145 -30 205 -43 234 -49 271 -56 300 -65 17
-5 66 -18 110 -30 44 -12 89 -25 100 -30 11 -5 45 -16 75 -25 30 -9 69 -20 85
-26 142 -49 237 -83 272 -100 24 -10 47 -19 53 -19 6 0 18 -4 28 -9 18 -9 90
-39 162 -66 89 -34 273 -111 355 -150 126 -59 210 -95 221 -95 8 0 14 -4 14
-10 0 -5 4 -10 10 -10 10 0 131 -52 162 -70 10 -6 22 -10 28 -10 6 0 41 -17
78 -38 37 -21 98 -51 135 -67 37 -15 77 -37 89 -47 40 -34 11 -43 -150 -45
-81 -1 -187 -7 -237 -13 -49 -6 -137 -13 -195 -16 -58 -3 -121 -10 -140 -16
-19 -6 -82 -11 -140 -10 -89 2 -334 -11 -435 -22 -16 -2 -129 -7 -250 -10
-121 -4 -265 -11 -320 -16 -55 -5 -143 -9 -195 -9 -84 1 -211 -5 -350 -16
-334 -26 -718 -37 -870 -24 -41 4 -122 3 -180 -2 -473 -38 -549 -35 -577 23
-15 30 -66 316 -58 328 3 4 -4 59 -15 121 -10 63 -22 143 -25 179 -4 36 -15
110 -25 165 -10 55 -26 154 -35 220 -8 66 -21 147 -27 180 -14 76 -13 126 3
136 19 11 181 -1 204 -16z m-2274 -88 c7 -23 13 -82 15 -132 2 -97 15 -145 38
-145 8 0 17 -4 21 -9 8 -14 25 -105 35 -193 5 -43 18 -108 29 -145 11 -38 22
-106 25 -153 4 -47 11 -105 16 -130 5 -25 9 -70 10 -101 0 -30 4 -80 9 -110 5
-30 15 -100 22 -156 16 -131 15 -131 -97 -132 -47 0 -102 -5 -122 -10 -20 -5
-91 -12 -157 -15 -66 -3 -133 -10 -150 -14 -16 -5 -102 -10 -189 -10 -88 -1
-184 -6 -215 -11 -98 -17 -197 -20 -579 -22 -204 -1 -393 -6 -420 -11 -74 -14
-191 -19 -554 -23 -186 -2 -342 -6 -347 -9 -5 -3 -112 -10 -237 -16 -126 -5
-254 -14 -284 -20 -30 -6 -103 -11 -162 -12 -60 0 -108 -4 -108 -9 0 -5 -30
-9 -67 -9 -38 0 -120 -5 -183 -10 -63 -5 -160 -12 -215 -15 -55 -3 -110 -8
-122 -11 -53 -11 -14 39 68 87 80 46 196 126 204 140 4 5 15 9 25 9 10 0 20 4
22 9 2 5 26 20 53 35 54 29 111 61 200 116 32 19 76 45 99 58 22 13 48 30 56
37 8 7 25 16 36 19 12 4 59 27 105 51 191 102 469 235 490 235 5 0 20 6 32 14
24 16 373 166 386 166 4 0 79 30 167 66 87 36 213 86 279 111 66 24 152 57
190 73 39 15 95 35 125 45 30 10 66 24 80 31 40 22 283 104 308 104 21 0 59
-21 105 -60 11 -8 38 -26 62 -40 23 -14 80 -48 126 -76 46 -29 107 -61 134
-73 37 -16 54 -30 62 -51 12 -33 46 -50 96 -50 18 0 43 -7 56 -16 13 -9 41
-21 62 -25 21 -5 48 -17 59 -27 49 -42 128 -44 131 -3 4 51 -3 196 -10 210
-20 37 -42 151 -43 221 0 41 -6 86 -13 100 -16 32 -18 109 -4 126 6 8 23 14
37 14 14 0 39 4 56 9 113 35 129 31 147 -32z m967 -113 c3 -22 -20 -35 -45
-27 -14 5 -17 35 -6 47 14 14 48 1 51 -20z m-4318 -619 c0 -18 -5 -25 -20 -25
-20 0 -28 28 -13 43 15 16 33 6 33 -18z m9855 -413 c17 -10 50 -30 75 -44 73
-41 231 -139 282 -175 26 -18 50 -33 52 -33 2 0 58 -36 125 -80 66 -44 123
-80 126 -80 6 0 20 -11 50 -37 7 -7 16 -13 20 -13 6 0 219 -141 242 -160 7 -6
16 -10 21 -10 5 0 17 -9 27 -20 10 -11 24 -20 31 -20 7 0 14 -4 16 -8 2 -5 53
-42 113 -83 61 -41 126 -86 145 -100 19 -14 100 -72 180 -129 80 -57 147 -106
150 -109 3 -4 34 -28 70 -55 36 -26 81 -62 100 -80 19 -17 44 -38 56 -46 25
-18 94 -75 173 -145 32 -27 75 -65 97 -82 21 -18 74 -65 116 -105 42 -40 116
-109 164 -153 76 -70 513 -505 680 -677 61 -64 190 -209 254 -287 19 -24 40
-48 45 -55 29 -34 94 -115 116 -146 66 -90 257 -379 263 -398 4 -12 18 -34 30
-50 13 -15 36 -52 53 -82 16 -30 42 -74 56 -97 15 -24 27 -46 27 -49 0 -4 11
-22 25 -40 14 -18 25 -36 25 -39 0 -4 8 -19 19 -33 24 -35 67 -107 89 -152 9
-19 20 -37 23 -40 7 -6 119 -201 119 -207 0 -2 35 -66 78 -141 43 -75 96 -171
118 -212 21 -41 41 -77 44 -80 3 -3 34 -61 69 -130 35 -69 69 -132 76 -140 6
-8 20 -35 29 -60 10 -25 31 -69 47 -98 16 -29 42 -92 59 -140 17 -48 37 -100
44 -117 17 -37 56 -156 86 -255 12 -41 30 -102 40 -135 10 -33 23 -82 30 -110
6 -27 15 -59 20 -70 19 -47 50 -157 50 -178 0 -12 16 -76 36 -142 91 -309 234
-898 284 -1167 10 -53 21 -107 26 -120 9 -31 53 -266 64 -353 48 -358 59 -573
47 -975 -11 -397 -48 -960 -77 -1170 -6 -41 -15 -114 -20 -161 -20 -180 -72
-496 -134 -809 -77 -389 -158 -640 -405 -1255 -40 -99 -81 -198 -91 -220 -11
-22 -41 -94 -68 -160 -28 -66 -62 -146 -76 -177 -14 -31 -26 -60 -26 -63 0 -4
-7 -21 -14 -38 -8 -18 -35 -77 -59 -132 -171 -383 -190 -419 -218 -412 -25 7
-30 -1 -84 -133 -65 -157 -92 -208 -305 -565 -97 -163 -187 -297 -211 -315 -3
-3 -15 -19 -25 -36 -11 -17 -49 -64 -86 -105 -37 -41 -118 -130 -179 -199
-184 -205 -217 -240 -328 -355 -59 -60 -154 -161 -211 -224 -162 -177 -515
-534 -615 -622 -49 -43 -144 -127 -210 -185 -187 -164 -212 -184 -490 -390
-71 -53 -188 -134 -260 -181 -71 -47 -141 -93 -155 -103 -21 -15 -208 -129
-272 -165 -9 -5 -94 -55 -187 -110 -93 -55 -209 -121 -258 -147 -48 -26 -108
-58 -133 -71 -121 -66 -209 -105 -340 -152 -68 -25 -177 -65 -280 -104 -58
-22 -124 -45 -147 -51 -23 -6 -45 -15 -48 -20 -3 -6 -16 -10 -28 -10 -12 0
-51 -11 -87 -24 -36 -13 -150 -51 -254 -86 l-189 -62 -18 23 c-25 34 -87 161
-115 238 -14 36 -29 75 -34 86 -58 123 -201 651 -244 901 -9 50 -26 127 -37
170 -36 137 -47 188 -47 218 0 15 -6 51 -15 80 -9 28 -20 75 -26 104 -6 28
-15 73 -21 100 -20 98 -40 249 -40 295 0 26 -9 98 -19 160 -11 62 -29 177 -41
257 -13 80 -33 186 -46 235 -12 50 -32 142 -44 205 -12 63 -25 129 -31 145 -5
17 -13 75 -19 130 -15 147 -58 414 -86 534 -46 200 -53 236 -64 346 -11 110
-35 228 -91 445 -74 291 -80 327 -51 337 9 3 40 21 67 38 142 90 156 97 196
90 34 -6 45 -2 101 37 76 52 73 50 124 90 22 18 56 44 74 58 88 65 271 212
299 241 9 8 75 66 146 129 72 62 161 141 200 174 132 115 392 381 500 511 22
27 54 63 70 81 17 18 53 63 80 100 28 37 59 76 70 88 23 24 191 250 218 293
15 24 49 74 74 108 5 6 16 20 26 32 10 12 19 28 21 36 1 8 7 21 13 28 13 18
79 163 133 299 24 58 50 123 60 145 17 39 36 94 58 165 7 19 23 82 37 140 14
58 29 119 34 135 8 29 13 49 45 185 14 63 30 154 41 235 3 22 7 50 9 62 19 92
49 496 50 648 1 427 -30 856 -84 1170 -11 61 -22 135 -25 165 -6 52 -31 153
-61 248 -8 23 -14 49 -14 57 0 21 -74 216 -126 330 -12 28 -32 75 -45 105 -12
30 -30 66 -39 80 -8 14 -26 48 -40 75 -13 28 -43 80 -66 116 -23 36 -58 97
-79 135 -20 38 -43 76 -49 84 -11 12 -51 77 -101 162 -67 113 -191 301 -202
305 -7 3 -13 10 -13 16 0 29 -215 274 -294 335 -15 12 -57 54 -91 94 -34 40
-85 97 -113 126 -28 28 -49 52 -47 52 7 0 -202 201 -226 218 -47 33 -116 99
-201 194 -16 18 -31 43 -34 55 -4 13 -11 22 -18 21 -24 -4 -117 32 -158 62
-66 48 -299 200 -307 200 -5 0 -16 9 -26 20 -10 11 -23 20 -28 20 -5 0 -41 21
-79 46 -70 46 -304 166 -390 200 -27 11 -48 22 -48 27 0 4 -8 7 -17 7 -10 0
-36 9 -58 19 -22 11 -83 36 -135 56 -52 20 -121 48 -153 61 -32 13 -67 24 -78
24 -11 0 -27 4 -37 9 -31 17 -132 51 -152 51 -11 0 -20 5 -20 11 0 5 -8 9 -17
8 -10 -2 -27 2 -38 8 -11 6 -38 14 -60 18 -22 3 -53 13 -70 21 -32 14 -136 40
-222 54 -28 4 -56 11 -61 14 -5 3 -28 8 -51 11 -22 2 -74 11 -113 20 -88 17
-122 22 -253 31 -118 8 -122 11 -153 124 -98 354 -149 620 -138 717 3 29 2 61
-3 70 -17 33 -41 139 -41 184 0 25 -4 49 -8 55 -18 20 -52 119 -52 151 0 19
-12 64 -26 100 -25 62 -27 98 -10 144 4 9 -3 27 -18 43 -26 31 -54 166 -42
203 3 11 0 39 -7 64 -15 51 -7 132 17 183 9 18 33 49 54 68 21 19 48 50 60 69
23 38 85 92 117 103 11 3 35 20 54 36 18 17 39 30 46 30 6 0 20 9 31 21 17 18
26 20 80 14 47 -5 70 -2 100 11 33 15 68 17 229 15 136 -1 214 3 275 14 63 11
210 18 560 25 320 7 511 15 585 26 158 22 540 43 681 38 67 -2 166 0 220 6
191 18 430 39 509 45 44 3 127 13 184 21 58 8 134 14 170 14 36 0 109 9 161
19 52 11 119 22 148 25 29 3 65 9 80 13 15 3 56 7 92 7 l65 1 3 35 c2 30 -30
236 -58 365 -4 22 -15 83 -24 135 -9 52 -26 130 -38 172 -29 106 -17 129 47
90z m-10603 -644 c4 -106 15 -164 68 -384 11 -45 20 -97 20 -116 0 -19 6 -57
14 -84 8 -27 17 -66 21 -88 3 -21 10 -46 15 -55 5 -9 11 -23 14 -33 3 -9 20
-18 43 -22 57 -9 333 -5 369 5 29 9 78 12 354 24 196 9 285 14 335 20 28 3
213 8 411 10 199 3 402 9 453 14 55 6 137 6 210 1 91 -7 143 -6 227 6 60 8
148 18 195 23 47 4 90 10 95 13 5 3 110 9 234 12 124 4 266 9 315 12 139 8
651 18 835 17 192 -1 285 -10 301 -29 6 -8 19 -14 29 -14 10 0 29 -15 43 -33
14 -18 54 -48 90 -66 81 -41 176 -139 212 -217 14 -30 25 -58 25 -63 0 -5 9
-28 20 -53 24 -54 94 -412 110 -565 7 -61 9 -131 6 -156 -7 -47 9 -248 25
-309 11 -44 29 -340 35 -567 4 -179 0 -191 -53 -191 -15 0 -48 -7 -72 -15 -24
-9 -64 -18 -90 -21 -25 -3 -53 -8 -61 -11 -8 -4 -18 -6 -22 -5 -4 1 -28 -3
-55 -9 -26 -6 -73 -14 -105 -18 -31 -5 -71 -16 -89 -25 -17 -9 -44 -16 -58
-16 -45 0 -145 -28 -156 -43 -5 -7 -41 -24 -80 -36 -69 -22 -267 -115 -335
-156 -19 -12 -52 -27 -72 -34 -21 -7 -38 -17 -38 -22 0 -5 -8 -9 -19 -9 -10 0
-30 -9 -44 -20 -14 -11 -30 -20 -35 -20 -6 0 -12 -3 -14 -7 -1 -5 -18 -16 -35
-25 -18 -10 -48 -26 -65 -35 -18 -10 -35 -21 -38 -24 -6 -7 -82 -56 -122 -79
-64 -35 -124 -74 -143 -90 -11 -10 -76 -55 -145 -100 -69 -46 -127 -86 -130
-89 -3 -4 -21 -18 -40 -31 -19 -13 -37 -27 -40 -30 -3 -3 -34 -25 -70 -49 -36
-25 -67 -47 -70 -50 -3 -4 -39 -33 -80 -65 -96 -76 -333 -316 -440 -446 -83
-101 -140 -178 -140 -189 0 -4 -9 -16 -20 -26 -11 -10 -20 -22 -20 -28 0 -5
-13 -26 -28 -46 -16 -20 -40 -56 -53 -81 -13 -25 -26 -47 -29 -50 -17 -16
-154 -294 -200 -405 -19 -44 -37 -84 -42 -90 -4 -5 -8 -15 -8 -22 0 -7 -8 -32
-19 -56 -10 -23 -33 -78 -51 -122 -18 -44 -41 -97 -51 -118 -11 -22 -19 -45
-19 -52 0 -7 -7 -16 -16 -19 -9 -3 -14 -12 -11 -20 3 -8 -3 -23 -14 -35 -12
-13 -19 -33 -18 -53 1 -18 -8 -64 -20 -103 -33 -108 -39 -127 -46 -168 -3 -21
-16 -48 -28 -60 -20 -20 -22 -31 -19 -103 2 -68 0 -84 -18 -106 -22 -29 -25
-50 -10 -77 12 -23 -11 -288 -29 -319 -7 -13 -10 -31 -6 -40 3 -9 8 -107 11
-217 11 -443 51 -858 104 -1075 6 -25 15 -65 20 -90 4 -25 15 -67 24 -95 27
-83 33 -106 66 -220 32 -114 71 -231 120 -370 16 -44 50 -141 75 -215 26 -74
71 -185 101 -246 30 -61 54 -116 54 -123 0 -6 4 -11 8 -11 4 0 14 -17 21 -37
8 -21 18 -43 23 -50 5 -6 26 -44 47 -85 46 -88 163 -282 173 -286 5 -2 8 -8 8
-13 0 -6 18 -37 40 -70 22 -33 40 -63 40 -65 0 -3 18 -32 40 -65 22 -33 40
-63 40 -65 0 -3 14 -25 30 -49 17 -24 30 -49 30 -56 0 -6 17 -31 38 -54 20
-23 55 -68 77 -100 22 -31 45 -63 50 -69 6 -6 39 -47 75 -91 93 -116 126 -152
315 -337 269 -265 258 -255 491 -455 50 -43 145 -118 210 -168 65 -49 121 -92
124 -96 7 -9 80 -60 170 -119 41 -28 80 -54 87 -60 7 -5 19 -10 28 -10 8 0 15
-4 15 -8 0 -5 15 -16 33 -25 17 -10 48 -27 67 -39 60 -36 127 -68 144 -68 9 0
16 -4 16 -10 0 -5 7 -10 15 -10 8 0 47 -14 87 -31 40 -17 88 -38 106 -45 17
-8 49 -21 70 -30 20 -9 45 -20 54 -25 10 -5 23 -9 28 -9 6 0 29 -9 50 -19 22
-11 64 -25 92 -31 29 -7 67 -19 83 -26 17 -7 75 -26 130 -43 55 -16 138 -41
184 -55 46 -14 120 -33 165 -41 44 -8 89 -18 98 -21 16 -5 17 -19 11 -157 -3
-84 -5 -159 -4 -167 8 -91 13 -228 15 -510 1 -184 5 -342 9 -351 4 -8 8 -35 8
-60 0 -71 1 -122 0 -149 -5 -488 8 -1824 20 -2140 7 -168 13 -343 15 -390 2
-83 -21 -370 -32 -400 -3 -8 -8 -49 -10 -90 -8 -156 -70 -368 -166 -567 -29
-60 -31 -63 -66 -63 -21 0 -80 7 -132 16 -52 9 -126 20 -165 24 -66 9 -107 16
-315 54 -78 15 -209 45 -430 98 -47 11 -112 26 -145 33 -33 7 -78 19 -100 27
-22 9 -69 21 -105 28 -36 6 -69 15 -75 20 -5 4 -30 11 -55 15 -25 4 -65 13
-90 20 -103 31 -187 54 -217 60 -18 4 -35 11 -38 16 -4 5 -14 9 -24 9 -10 0
-40 8 -67 19 -27 10 -74 26 -104 36 -30 10 -70 27 -88 37 -18 10 -38 18 -44
18 -19 0 -238 90 -367 151 -67 33 -128 59 -135 59 -6 0 -28 11 -48 25 -20 14
-43 25 -50 25 -7 0 -29 10 -48 22 -19 11 -111 60 -205 108 -277 141 -385 200
-472 256 -45 29 -97 60 -116 67 -19 8 -65 35 -103 60 -77 50 -204 127 -210
127 -2 0 -42 25 -89 55 -46 30 -87 55 -89 55 -6 0 -129 82 -151 100 -11 10
-40 29 -65 42 -68 38 -388 245 -450 292 -30 23 -68 50 -85 60 -48 30 -251 184
-265 201 -7 8 -16 15 -20 15 -11 0 -138 119 -316 295 -89 88 -197 194 -240
236 -44 41 -124 124 -179 184 -55 59 -140 149 -188 199 -49 50 -116 122 -150
160 -34 37 -76 82 -92 100 -59 60 -253 295 -271 328 -5 9 -24 33 -42 53 -18
20 -88 118 -155 219 -145 217 -135 202 -171 257 -15 24 -39 60 -52 80 -13 19
-24 40 -24 45 0 6 -9 19 -19 31 -11 11 -29 38 -40 59 -12 21 -44 73 -71 114
-27 41 -85 134 -128 205 -44 72 -95 155 -114 185 -19 30 -38 63 -41 73 -4 10
-22 42 -40 70 -80 124 -150 245 -231 400 -31 59 -68 126 -82 149 -28 44 -117
223 -127 254 -3 10 -15 35 -26 54 -36 63 -151 306 -151 320 0 7 -6 21 -14 29
-7 9 -23 41 -34 71 -11 30 -41 107 -67 170 -26 63 -51 124 -55 135 -4 11 -13
33 -19 48 -28 70 -253 762 -286 882 -9 33 -25 83 -35 110 -10 28 -33 97 -50
155 -18 58 -43 138 -56 179 -13 40 -24 79 -24 86 0 7 -14 55 -31 107 -16 51
-39 127 -49 168 -10 41 -28 107 -40 145 -11 39 -27 104 -34 145 -8 41 -24 118
-36 170 -43 193 -67 457 -75 825 -3 142 10 499 30 805 3 41 7 127 10 190 2 63
11 205 20 315 8 110 20 272 25 360 6 88 15 182 20 208 6 26 10 71 10 99 0 28
4 65 9 82 9 29 31 150 50 276 5 30 15 80 24 110 9 30 35 127 58 215 23 88 57
212 76 275 18 63 40 138 48 165 8 28 26 88 40 135 13 47 49 166 80 265 47 150
107 347 157 515 6 19 21 48 34 63 13 16 27 41 30 55 3 15 25 88 49 162 24 74
51 160 61 190 9 30 27 79 40 108 13 29 24 55 24 57 0 26 175 373 268 532 23
39 42 74 42 78 0 3 28 50 63 103 34 53 67 105 72 114 6 9 27 43 48 75 22 32
77 117 123 188 90 139 95 147 146 214 18 24 42 57 53 72 32 45 190 250 235
304 41 50 103 128 194 240 42 53 139 160 286 318 25 27 65 67 89 90 25 23 63
60 85 82 23 22 84 78 136 123 52 46 114 102 138 123 24 21 46 39 49 39 4 0
114 91 133 110 3 3 32 25 65 50 33 25 62 48 65 51 6 7 142 106 195 141 68 46
189 129 223 155 35 26 40 16 44 -99z m9982 -63 c6 -18 -25 -37 -42 -26 -17 11
-4 41 18 41 10 0 20 -7 24 -15z m-15364 -624 c0 -6 -4 -13 -10 -16 -5 -3 -10
1 -10 9 0 9 5 16 10 16 6 0 10 -4 10 -9z m-1710 -6747 c0 -8 -4 -14 -10 -14
-5 0 -10 9 -10 21 0 11 5 17 10 14 6 -3 10 -13 10 -21z m2986 -950 c-11 -41
-26 -27 -26 23 0 46 0 47 16 25 10 -14 14 -32 10 -48z m22444 -8044 c0 -5 -4
-10 -10 -10 -5 0 -10 5 -10 10 0 6 5 10 10 10 6 0 10 -4 10 -10z m-3150 -3270
c0 -5 -5 -10 -11 -10 -5 0 -7 5 -4 10 3 6 8 10 11 10 2 0 4 -4 4 -10z m-1635
-1110 c-3 -5 -11 -10 -16 -10 -6 0 -7 5 -4 10 3 6 11 10 16 10 6 0 7 -4 4 -10z
m-2255 -984 c0 -2 -7 -7 -16 -10 -8 -3 -12 -2 -9 4 6 10 25 14 25 6z m-190
-61 c0 -8 -59 -35 -77 -35 -13 0 -10 5 12 20 27 18 65 27 65 15z m-102 -37
c-3 -7 -22 -14 -44 -16 -26 -2 -36 0 -29 6 9 9 24 13 68 21 5 0 7 -4 5 -11z
m-7168 -438 c0 -5 -7 -10 -15 -10 -8 0 -15 5 -15 10 0 6 7 10 15 10 8 0 15 -4
15 -10z m747 -166 c-3 -3 -12 -4 -19 -1 -8 3 -5 6 6 6 11 1 17 -2 13 -5z m753
-88 c0 -2 -15 -6 -34 -8 -19 -2 -32 0 -30 4 5 8 64 12 64 4z"/>
<path d="M23303 32064 c0 -17 2 -22 7 -13 5 6 6 18 3 26 -8 19 -10 16 -10 -13z"/>
<path d="M21849 32053 c-13 -16 -12 -17 4 -4 16 13 21 21 13 21 -2 0 -10 -8
-17 -17z"/>
<path d="M21850 31990 c0 -5 5 -10 11 -10 5 0 7 5 4 10 -3 6 -8 10 -11 10 -2
0 -4 -4 -4 -10z"/>
<path d="M25977 13370 c-3 -11 -2 -20 3 -20 12 0 21 28 11 35 -5 2 -11 -4 -14
-15z"/>
<path d="M23450 32613 c-14 -3 -29 -9 -35 -15 -7 -7 -3 -9 13 -5 12 3 22 1 22
-5 0 -6 13 -8 30 -6 17 3 30 2 30 -2 0 -4 6 -7 14 -7 8 0 12 6 9 14 -3 7 0 13
6 13 6 0 11 5 11 10 0 10 -52 11 -100 3z"/>
<path d="M28110 32612 c0 -5 7 -13 16 -16 23 -9 24 -8 23 12 0 11 -2 12 -6 4
-4 -10 -8 -10 -19 -1 -8 7 -14 7 -14 1z"/>
<path d="M23345 32602 c-57 -4 -97 -29 -70 -45 11 -5 27 -4 46 3 16 7 32 10
35 7 4 -3 15 3 27 13 26 25 24 26 -38 22z"/>
<path d="M27221 32577 c-8 -11 -9 -17 -3 -17 6 0 9 -8 6 -17 -5 -17 -5 -17 6
0 6 10 10 25 8 34 -3 15 -4 15 -17 0z"/>
<path d="M27540 32580 c0 -5 5 -10 10 -10 6 0 10 5 10 10 0 6 -4 10 -10 10 -5
0 -10 -4 -10 -10z"/>
<path d="M27950 32571 c0 -10 19 -25 25 -20 1 2 -3 10 -11 17 -8 7 -14 8 -14
3z"/>
<path d="M28023 32547 c-1 -18 1 -24 4 -14 5 18 29 16 63 -5 12 -8 12 -9 -2
-4 -14 4 -17 -1 -16 -32 1 -20 3 -32 5 -25 2 6 12 9 21 6 14 -3 17 4 18 42 1
45 -2 49 -38 46 -10 -1 -25 2 -36 8 -15 8 -18 5 -19 -22z"/>
<path d="M27733 32555 c0 -8 4 -12 9 -9 5 3 6 10 3 15 -9 13 -12 11 -12 -6z"/>
<path d="M24220 32521 c0 -25 6 -27 13 -6 4 8 2 17 -3 20 -6 4 -10 -3 -10 -14z"/>
<path d="M27585 32531 c-3 -5 -2 -12 3 -15 5 -3 9 1 9 9 0 17 -3 19 -12 6z"/>
<path d="M27610 32530 c0 -5 5 -10 11 -10 5 0 7 5 4 10 -3 6 -8 10 -11 10 -2
0 -4 -4 -4 -10z"/>
<path d="M26836 32522 c-3 -5 1 -9 9 -9 8 0 12 4 9 9 -3 4 -7 8 -9 8 -2 0 -6
-4 -9 -8z"/>
<path d="M27390 32519 c0 -5 5 -7 10 -4 6 3 10 8 10 11 0 2 -4 4 -10 4 -5 0
-10 -5 -10 -11z"/>
<path d="M27088 32488 c7 -16 18 -28 23 -28 5 0 9 12 9 28 0 22 -5 27 -23 27
-22 0 -22 -1 -9 -27z"/>
<path d="M22896 32502 c-4 -7 -15 -12 -24 -10 -23 4 -28 -14 -9 -26 19 -12 52
14 45 35 -3 10 -6 10 -12 1z"/>
<path d="M23261 32494 c0 -11 3 -14 6 -6 3 7 2 16 -1 19 -3 4 -6 -2 -5 -13z"/>
<path d="M27320 32493 c1 -22 27 -59 37 -50 3 4 3 7 -2 7 -4 0 0 10 11 22 10
12 14 18 8 15 -7 -4 -17 0 -24 8 -17 20 -30 19 -30 -2z"/>
<path d="M28027 32503 c-11 -11 -8 -20 8 -20 8 0 15 6 15 14 0 14 -12 17 -23
6z"/>
<path d="M23676 32485 c-3 -8 -1 -15 4 -15 6 0 10 7 10 15 0 8 -2 15 -4 15 -2
0 -6 -7 -10 -15z"/>
<path d="M27519 32491 c-3 -8 -18 -14 -36 -13 -39 1 -50 -22 -21 -42 19 -14
24 -13 47 3 15 11 41 18 63 17 29 -1 35 1 26 11 -6 7 -14 11 -18 8 -5 -3 -12
-1 -15 5 -5 8 -11 8 -20 0 -10 -8 -14 -7 -17 7 -3 13 -5 14 -9 4z"/>
<path d="M27790 32468 c0 -25 -3 -29 -12 -20 -8 8 -15 9 -25 1 -15 -13 -18
-39 -4 -39 5 0 14 -12 19 -27 7 -18 11 -22 11 -10 1 9 7 17 14 17 6 0 4 5 -6
11 -15 9 -16 12 -2 25 14 14 22 74 10 74 -3 0 -5 -14 -5 -32z"/>
<path d="M27290 32478 c0 -9 5 -20 11 -23 17 -11 20 0 4 21 -13 17 -14 17 -15
2z"/>
<path d="M27025 32471 c-6 -11 9 -23 19 -14 9 9 7 23 -3 23 -6 0 -12 -4 -16
-9z"/>
<path d="M27620 32465 c0 -15 27 -28 41 -19 18 11 8 32 -16 32 -14 0 -25 -6
-25 -13z"/>
<path d="M29300 32471 c0 -16 18 -22 23 -9 3 7 6 3 6 -10 1 -13 5 -20 11 -17
14 9 -7 45 -25 45 -8 0 -15 -4 -15 -9z"/>
<path d="M23797 32464 c-15 -16 -6 -40 15 -41 16 -2 19 0 10 6 -8 5 -13 11
-12 15 3 13 -6 27 -13 20z"/>
<path d="M27207 32463 c-11 -11 -8 -23 6 -23 8 0 14 7 14 15 0 16 -9 19 -20 8z"/>
<path d="M22540 32440 c-30 -10 -64 -20 -75 -23 -11 -3 16 -5 60 -4 44 0 82 4
85 9 3 4 15 9 25 11 11 1 29 8 40 14 33 19 -73 14 -135 -7z"/>
<path d="M24003 32443 c0 -47 -3 -58 -12 -44 -14 22 -31 3 -24 -29 3 -18 0
-36 -7 -45 -7 -8 -9 -15 -4 -15 5 0 2 -5 -6 -10 -12 -8 -12 -10 5 -10 11 0 30
3 42 6 19 5 21 10 12 25 -6 13 -6 19 1 19 5 0 10 9 10 20 0 11 5 20 12 20 9 0
9 3 0 12 -7 7 -12 25 -12 40 0 15 -4 28 -9 28 -4 0 -8 -8 -8 -17z"/>
<path d="M24210 32455 c0 -7 30 -13 34 -7 3 4 -4 9 -15 9 -10 1 -19 0 -19 -2z"/>
<path d="M26993 32430 c-3 -11 -8 -18 -12 -16 -4 3 -12 -3 -18 -13 -9 -14 -7
-17 11 -19 12 -1 27 7 34 18 8 14 9 20 1 20 -6 0 -9 7 -5 15 3 8 3 15 0 15 -3
0 -8 -9 -11 -20z"/>
<path d="M27530 32440 c0 -5 5 -10 11 -10 5 0 7 5 4 10 -3 6 -8 10 -11 10 -2
0 -4 -4 -4 -10z"/>
<path d="M23514 32423 c-11 -20 -7 -53 7 -53 6 0 6 7 -1 19 -7 14 -7 20 2 23
6 2 9 9 7 16 -3 8 -8 6 -15 -5z"/>
<path d="M23848 32419 c-13 -14 -14 -18 -3 -23 8 -3 17 3 20 15 9 27 4 29 -17
8z"/>
<path d="M22416 32412 c-3 -5 -20 -12 -38 -15 -41 -6 -118 -25 -138 -34 -8 -3
-19 -7 -24 -7 -5 -1 -11 -7 -14 -14 -3 -10 3 -13 19 -10 15 2 23 9 21 18 -3
12 -1 13 9 3 7 -7 26 -13 43 -13 29 0 96 19 106 31 3 3 13 10 22 15 11 6 14
14 9 23 -5 8 -11 9 -15 3z"/>
<path d="M22700 32409 c0 -5 5 -7 10 -4 6 3 10 8 10 11 0 2 -4 4 -10 4 -5 0
-10 -5 -10 -11z"/>
<path d="M24048 32398 c5 -5 16 -8 23 -6 8 3 3 7 -10 11 -17 4 -21 3 -13 -5z"/>
<path d="M27134 32387 c-8 -34 -2 -42 13 -18 6 10 8 24 3 31 -6 10 -10 7 -16
-13z"/>
<path d="M29612 32399 c2 -6 7 -10 11 -10 4 1 14 1 23 1 8 0 12 5 9 10 -8 13
-48 13 -43 -1z"/>
<path d="M23673 32370 c1 -15 5 -17 20 -8 20 10 16 20 -8 24 -8 1 -13 -6 -12
-16z"/>
<path d="M27806 32374 c-4 -9 -3 -20 0 -23 4 -3 9 0 11 7 3 6 9 9 15 6 6 -4 9
-1 6 6 -7 21 -25 23 -32 4z"/>
<path d="M23316 32371 c-4 -6 -3 -11 3 -11 6 0 8 -6 5 -14 -3 -8 -1 -17 5 -20
16 -10 20 8 7 33 -9 15 -16 20 -20 12z"/>
<path d="M23830 32368 c0 -5 -5 -6 -12 -2 -7 4 -8 3 -4 -4 4 -7 1 -12 -7 -12
-8 0 -18 -7 -21 -16 -10 -26 -7 -26 21 1 32 29 39 31 47 10 3 -8 10 -15 15
-15 7 0 7 8 0 23 -10 23 -39 33 -39 15z"/>
<path d="M22802 32350 c0 -14 2 -19 5 -12 2 6 2 18 0 25 -3 6 -5 1 -5 -13z"/>
<path d="M23610 32360 c-12 -8 -12 -10 5 -10 11 0 27 5 35 10 12 8 12 10 -5
10 -11 0 -27 -5 -35 -10z"/>
<path d="M27090 32359 c0 -5 -3 -8 -7 -6 -5 3 -8 -6 -8 -19 0 -29 6 -30 25 -6
21 26 23 42 5 42 -8 0 -15 -5 -15 -11z"/>
<path d="M27257 32351 c-4 -17 -3 -21 5 -13 5 5 8 16 6 23 -3 8 -7 3 -11 -10z"/>
<path d="M23485 32351 c3 -5 -1 -12 -7 -14 -7 -3 -3 -6 10 -6 25 -1 30 14 6
23 -8 3 -13 2 -9 -3z"/>
<path d="M23717 32348 c2 -5 0 -8 -4 -8 -5 0 -17 -13 -26 -30 -12 -20 -23 -27
-34 -23 -10 4 -14 2 -11 -7 2 -7 14 -15 26 -17 18 -2 22 2 22 22 0 15 6 25 15
25 7 0 19 8 25 18 10 15 10 15 6 -3 -6 -25 18 -73 29 -56 4 7 0 20 -8 29 -14
17 -12 42 5 53 5 3 -4 6 -20 5 -17 -1 -28 -4 -25 -8z"/>
<path d="M24070 32350 c0 -5 5 -10 11 -10 5 0 7 5 4 10 -3 6 -8 10 -11 10 -2
0 -4 -4 -4 -10z"/>
<path d="M22930 32341 c0 -6 4 -13 10 -16 6 -3 7 1 4 9 -7 18 -14 21 -14 7z"/>
<path d="M23210 32320 c0 -11 6 -20 14 -20 9 0 12 7 9 20 -3 11 -9 20 -14 20
-5 0 -9 -9 -9 -20z"/>
<path d="M23370 32331 c0 -6 4 -13 10 -16 6 -3 7 1 4 9 -7 18 -14 21 -14 7z"/>
<path d="M24030 32319 c0 -12 5 -19 12 -17 18 6 20 25 3 31 -10 5 -15 0 -15
-14z"/>
<path d="M23844 32319 c-3 -6 -1 -16 6 -22 10 -9 11 -9 6 0 -3 6 1 13 11 15
17 3 17 4 1 10 -10 4 -20 2 -24 -3z"/>
<path d="M27157 32309 c-4 -15 -2 -18 7 -10 7 6 17 7 22 3 4 -4 2 1 -5 11 -17
21 -18 21 -24 -4z"/>
<path d="M22083 32312 c-8 -5 -3 -11 13 -19 24 -11 41 -2 29 17 -7 12 -25 13
-42 2z"/>
<path d="M22137 32299 c4 -16 8 -17 14 -7 13 19 11 28 -5 28 -9 0 -12 -7 -9
-21z"/>
<path d="M23550 32305 c0 -9 -7 -18 -15 -21 -9 -4 -13 -14 -11 -23 3 -9 2 -22
-3 -29 -6 -10 -11 -9 -22 4 -12 16 -12 17 5 11 14 -6 17 -4 12 9 -3 8 -6 18
-6 20 0 2 -9 4 -20 4 -24 0 -25 3 1 -56 20 -44 23 -46 30 -26 5 12 15 22 24
22 13 0 17 6 14 26 0 4 5 11 13 15 10 7 10 9 1 9 -7 0 -13 4 -13 10 0 15 37 6
62 -16 13 -11 18 -12 10 -3 -6 9 -9 18 -6 21 3 4 -8 9 -25 13 -17 4 -31 11
-31 16 0 5 -4 9 -10 9 -5 0 -10 -7 -10 -15z"/>
<path d="M23427 32303 c-4 -3 -7 -13 -7 -21 0 -18 13 -7 16 13 2 17 1 18 -9 8z"/>
<path d="M23900 32306 c0 -2 7 -6 15 -10 8 -3 15 -1 15 4 0 6 -7 10 -15 10 -8
0 -15 -2 -15 -4z"/>
<path d="M23810 32292 c-26 -9 -29 -25 -7 -44 12 -11 17 -17 11 -14 -7 3 -14
-1 -18 -9 -3 -8 -1 -15 4 -15 5 0 11 -8 13 -17 4 -17 5 -17 6 0 0 10 6 15 11
12 6 -3 10 3 10 15 0 13 4 18 11 14 6 -3 3 9 -6 27 -21 41 -17 37 -35 31z"/>
<path d="M22823 32275 c0 -8 4 -12 9 -9 5 3 6 10 3 15 -9 13 -12 11 -12 -6z"/>
<path d="M23359 32259 c-8 -5 -10 -9 -5 -9 5 0 2 -8 -5 -17 -13 -17 -13 -17
11 -1 25 15 27 15 43 -5 17 -21 17 -21 17 -1 0 25 -40 46 -61 33z"/>
<path d="M23577 32242 c-2 -4 -2 -13 -1 -19 1 -7 2 -23 3 -35 1 -27 17 -13 26
23 5 19 2 28 -9 32 -8 3 -17 3 -19 -1z"/>
<path d="M23435 32230 c3 -5 16 -10 28 -10 18 0 19 2 7 10 -20 13 -43 13 -35
0z"/>
<path d="M23625 32230 c-3 -6 3 -23 14 -39 11 -15 19 -30 18 -32 -1 -3 10 8
24 23 14 15 29 25 32 22 3 -3 3 3 0 15 -7 27 -27 27 -53 -1 -19 -20 -26 -15
-21 15 2 10 -7 9 -14 -3z"/>
<path d="M23362 32213 c-6 -3 -10 -9 -6 -14 3 -5 0 -9 -6 -9 -6 0 -8 -5 -5
-10 4 -6 10 -8 15 -5 4 3 10 0 12 -7 7 -21 28 2 27 30 0 24 -1 25 -8 7 -7 -16
-9 -17 -12 -4 -2 9 -10 14 -17 12z"/>
<path d="M22050 32190 c-13 -8 -12 -10 3 -10 9 0 17 5 17 10 0 12 -1 12 -20 0z"/>
<path d="M22264 32174 c3 -9 6 -17 6 -19 0 -2 9 -1 20 2 21 6 26 18 11 27 -5
4 -12 0 -14 -6 -4 -10 -6 -10 -6 0 -1 6 -6 12 -12 12 -6 0 -8 -7 -5 -16z"/>
<path d="M23543 32177 c3 -9 2 -19 -2 -22 -5 -2 -11 -17 -14 -32 l-5 -27 19
25 c10 13 19 28 19 32 0 5 5 5 10 2 17 -11 11 0 -12 19 -17 15 -20 15 -15 3z"/>
<path d="M23610 32161 c0 -12 5 -21 10 -21 6 0 10 6 10 14 0 8 -4 18 -10 21
-5 3 -10 -3 -10 -14z"/>
<path d="M22166 32143 c-4 -9 -3 -20 2 -25 6 -6 11 1 14 16 6 29 -6 35 -16 9z"/>
<path d="M23464 32138 c2 -19 16 -38 26 -38 14 0 5 32 -12 41 -11 6 -16 5 -14
-3z"/>
<path d="M21380 32082 c0 -6 6 -13 13 -15 8 -4 8 -6 0 -6 -21 -2 -2 -41 21
-41 20 1 20 1 2 11 -12 8 -15 14 -7 18 8 5 5 13 -9 26 -11 10 -20 13 -20 7z"/>
<path d="M21545 32071 c-3 -5 6 -21 20 -35 14 -14 25 -21 25 -16 0 5 10 10 22
12 25 4 37 28 14 28 -9 0 -16 -4 -16 -8 0 -4 -9 -8 -20 -8 -18 0 -18 2 -3 18
15 17 14 18 -10 18 -14 0 -28 -4 -32 -9z"/>
<path d="M21441 32043 c7 -10 15 -20 16 -22 2 -2 3 5 3 17 0 14 -6 22 -16 22
-14 0 -15 -3 -3 -17z"/>
<path d="M21650 32050 c0 -5 5 -10 10 -10 6 0 10 5 10 10 0 6 -4 10 -10 10 -5
0 -10 -4 -10 -10z"/>
<path d="M21088 31983 c-32 -16 -37 -42 -8 -40 11 1 20 5 20 10 0 5 15 6 33 2
25 -5 28 -4 15 5 -9 6 -15 17 -12 25 7 19 -12 18 -48 -2z"/>
<path d="M23475 31910 c3 -5 8 -10 11 -10 2 0 4 5 4 10 0 6 -5 10 -11 10 -5 0
-7 -4 -4 -10z"/>
<path d="M21130 31880 c0 -11 2 -20 4 -20 2 0 11 -3 20 -6 13 -5 13 -2 3 20
-14 31 -27 34 -27 6z"/>
<path d="M23445 31892 c-5 -4 -15 -14 -22 -22 -10 -13 -9 -16 6 -17 13 -1 21
7 24 23 2 13 4 24 3 24 0 0 -5 -4 -11 -8z"/>
<path d="M19866 31425 c4 -8 10 -12 15 -9 11 6 2 24 -11 24 -5 0 -7 -7 -4 -15z"/>
<path d="M19908 31383 c7 -3 16 -2 19 1 4 3 -2 6 -13 5 -11 0 -14 -3 -6 -6z"/>
<path d="M17938 30468 c5 -5 16 -8 23 -6 8 3 3 7 -10 11 -17 4 -21 3 -13 -5z"/>
<path d="M17835 30400 c-3 -5 -1 -10 4 -10 6 0 11 5 11 10 0 6 -2 10 -4 10 -3
0 -8 -4 -11 -10z"/>
</g>
</svg>
